<?xml version="1.0" encoding="utf-8"?>
<!-- Generator: Adobe Illustrator 18.0.0, SVG Export Plug-In . SVG Version: 6.00 Build 0)  -->
<!DOCTYPE svg PUBLIC "-//W3C//DTD SVG 1.1//EN" "http://www.w3.org/Graphics/SVG/1.1/DTD/svg11.dtd">
<svg version="1.1" id="Calque_1" xmlns="http://www.w3.org/2000/svg" xmlns:xlink="http://www.w3.org/1999/xlink" x="0px" y="0px"
	 viewBox="0 0 460.7 51.4" enable-background="new 0 0 460.7 51.4" xml:space="preserve">
<g>
	<g>
		<path d="M17.3,50.6c-11.1,0-16.1-6.8-16.1-13.1c0-0.4,0-0.7,0.1-1.1l0-0.2l0.9-0.9H11l1,1l0,0.3c-0.1,0.4-0.1,0.6-0.1,0.9
			c0,2.5,2,3.9,5.4,3.9c5.4,0,9.3-4.2,9.3-10c0-3.5-1.8-5.4-5.1-5.4c-2.5,0-4,1.2-4,1.2l-0.1,0.1l-4.8,0l-1-1l1.2-6.6L24,10.4H9.3
			l-1-1l1.2-7.2l0.9-0.9h28.4l1,1l-1.3,7.3l-1.1,1.5l-10.1,8c5.9,0.4,9.9,5.4,9.9,12.5C37.3,42.3,28.7,50.6,17.3,50.6z M2.3,36.7
			c0,0.3,0,0.5,0,0.8c0,5.8,4.7,12.1,15.1,12.1c10.8,0,19-7.8,19-18.2c0-6.9-3.9-11.5-9.6-11.5h-0.6l0.3-1.5l10.4-8.3L37.7,9
			l1.1-6.5l-0.4-0.4H10.9l-0.4,0.4L9.3,9l0.4,0.4h15.6L25,10.8l-11.2,9.5l-1,5.7l0.4,0.4h4c0.5-0.4,2-1.4,4.5-1.4
			c3.9,0,6.1,2.3,6.1,6.4c0,6.4-4.3,11-10.3,11c-4,0-6.4-1.8-6.4-4.9c0-0.3,0-0.5,0-0.8l-0.4-0.4H2.7L2.3,36.7z"/>
	</g>
	<g>
		<path d="M55.1,50.6c-10.1,0-16.3-5.7-16.3-14.8c0-3.3,0.3-6.5,1-10.3c2.9-17.3,9.6-25,21.6-25c8.7,0,15.2,4.9,15.2,11.4
			c0,0.4-0.1,0.8-0.1,0.8l0,0.1l-0.9,0.9h-8.7l-1-1v-0.2c0-2.5-3.1-2.9-4.9-2.9c-6,0-8.2,6.3-8.9,9.8c0.9-0.7,3.6-2.6,8.7-2.6
			c7.5,0,13,5.8,13,13.8C73.8,43.7,64.4,50.6,55.1,50.6z M61.3,1.5c-11.4,0-17.8,7.4-20.6,24.1c-0.7,3.8-0.9,6.9-0.9,10.1
			c0,8.7,5.7,13.8,15.3,13.8c11.6,0,17.6-9.5,17.6-18.9c0-7.4-5-12.8-12-12.8c-5.8,0-8.3,2.5-8.3,2.6l-0.1,0.2l-1.5,0L51,20
			c0.6-3.4,2.8-11.3,10-11.3c5,0,5.8,2.4,5.9,3.7l0.4,0.4h7.8l0.4-0.4c0-0.1,0-0.3,0-0.4C75.6,6,69.5,1.5,61.3,1.5z M55.1,42.4
			c-4.4,0-6.8-2.2-6.8-6.4c0-6.5,4-11,9.6-11c3.9,0,6.1,2.2,6.1,6.3C64.1,36.8,60.7,42.4,55.1,42.4z M58,26c-5.1,0-8.6,4.1-8.6,10
			c0,3.6,1.9,5.4,5.8,5.4c4.9,0,8-5.2,8-10.1C63.1,27.8,61.4,26,58,26z"/>
	</g>
	<g>
		<path d="M91.3,49.9h-8.7l-1-1l5.9-33.5l-5.2,4.5h-4.6l-1-1l1.2-7.3l11.5-9.7l1.5-0.7h8.6l1,1L92.3,49L91.3,49.9z M83,48.9h7.9
			l0.4-0.4l8.1-46l-0.4-0.4h-8l-1.2,0.6l-11.1,9.4l-1.1,6.4l0.4,0.4h3.8l5.3-4.6h1.5l-6.1,34.2L83,48.9z"/>
	</g>
	<g>
		<path d="M112.2,50.6c-9.4,0-16-5.3-16-12.8c0-0.9,0.1-1.4,0.2-1.5l0-0.1l0.9-0.9h8.7l1,1l-0.1,0.3c0,0-0.1,0.3-0.1,0.6
			c0,3.1,1.5,4.3,5.3,4.3c5.5,0,8.8-4,8.8-10.8c0-3.6-1.8-5.3-5.4-5.3c-2.3,0-5.2,0.4-7.5,3.9l-0.1,0.1l-1.6,0.8l-7.1-0.7l-1-1
			l6-26.3l0.9-0.9h28.4l1,1l-1.2,7.2l-0.9,0.9h-19.3l-0.4,0.4l-2,8.2c0.9-0.9,3.5-2.8,7.9-2.8c7.9,0,13,5.7,13,14.5
			C131.7,42.6,123.9,50.6,112.2,50.6z M97.3,36.7c0,0.2-0.1,0.6-0.1,1.1c0,6.9,6.2,11.8,15,11.8c11,0,18.5-7.6,18.5-18.9
			c0-8.2-4.7-13.5-12-13.5c-5.1,0-7.5,2.9-7.5,2.9l-0.2,0.2l-1.6,0l2.4-10l0.9-0.9h19.3l0.4-0.4l1.1-6.4l-0.4-0.4h-27.6l-0.4,0.4
			l-5.8,25.5l0.4,0.4l6.4,0.6l1.1-0.6c2.6-3.7,5.8-4.2,8.2-4.2c4.2,0,6.4,2.2,6.4,6.3c0,7.2-3.7,11.8-9.8,11.8
			c-4.4,0-6.3-1.6-6.3-5.3c0-0.2,0-0.4,0-0.5l-0.4-0.4h-7.8L97.3,36.7z"/>
	</g>
	<g>
		<path d="M196.2,49.9h-8.6l-1-1V23L176,49l-0.9,0.9h-7.9l-0.9-1L155.6,23v25.9l-1,1H146l-1-1V2.1l1-1h10.6l0.9,1l13.5,33.1
			l13.6-33.2l0.9-0.9h10.6l1,1v46.8L196.2,49.9z M188,48.9h7.8l0.4-0.4v-46l-0.4-0.4H186l-0.5,0.5l-13.7,33.6h-1.4L156.7,2.6
			l-0.5-0.5h-9.8L146,2.6v46l0.4,0.4h7.8l0.4-0.4V21.6h1.5l11,26.8l0.5,0.5h7.1l0.5-0.5l11-26.8h1.5v26.9L188,48.9z"/>
	</g>
	<g>
		<path d="M211.7,50.6c-7.9,0-12.8-4.4-12.8-11.4c0-10.5,9.7-12.1,15.5-12.1c2.2,0,4,0.4,4.6,0.6l0.3-0.3v-0.5c0-3-0.3-3.6-4.3-3.6
			c-2.3,0-3.8,0.1-4.3,1.7l0,0.1l-0.9,0.9h-8.6l-1-1v-0.2c0-4,3.1-10.7,14.8-10.7c10.4,0,14.8,4.8,14.8,16.2v18.6l-1,1h-7.9l-0.9-1
			l-0.5-1.1h-0.2C218.7,48.5,216,50.6,211.7,50.6z M214.4,28.1c-6.6,0-14.5,1.9-14.5,11.1c0,6.4,4.5,10.4,11.8,10.4
			c4.5,0,7.1-2.6,7.1-2.6l0.1-0.1l1.2,0l0.8,1.6l0.5,0.5h7.1l0.4-0.4V30.3c0-10.8-4-15.2-13.8-15.2c-10.7,0-13.7,5.9-13.8,9.5
			l0.4,0.4h7.8l0.5-0.5c0.8-2.3,3.2-2.3,5.2-2.3c4.3,0,5.3,0.9,5.3,4.6v0.9l-1,1l-0.3-0.1C219,28.7,217,28.1,214.4,28.1z
			 M213.8,42.4c-4.6,0-5.3-2.4-5.3-3.9c0-3,2.2-4.6,6.6-4.6c2.8,0,4.3,0.7,4.3,0.7l0.1,0.1l0.8,0.8v1.6
			C220.4,40.1,217.5,42.4,213.8,42.4z M215.1,34.9c-5.6,0-5.6,2.7-5.6,3.6c0,2,1.4,2.9,4.3,2.9c3.2,0,5.6-1.9,5.6-4.3V36l-0.5-0.5
			C218.6,35.4,217.4,34.9,215.1,34.9z"/>
	</g>
	<g>
		<path d="M242.2,49.9h-8.6l-1-1V15.8l1-1h8.6l1,1v33.1L242.2,49.9z M234,48.9h7.8l0.4-0.4V16.2l-0.4-0.4H234l-0.4,0.4v32.3
			L234,48.9z M242.2,10.4h-8.6l-1-1V2.1l1-1h8.6l1,1v7.2L242.2,10.4z M234,9.4h7.8l0.4-0.4V2.6l-0.4-0.4H234l-0.4,0.4V9L234,9.4z"/>
	</g>
	<g>
		<path d="M261,50.6c-9.4,0-15.5-4.7-15.5-12.1v-0.2l1-1h8.6l1,1v0.2c0,2.1,1.3,2.9,5,2.9c4.4,0,5-1.2,5-2.2c0-1.9-1.5-2.2-4.9-2.7
			c-0.5-0.1-1-0.2-1.5-0.2c-11.1-1.8-13.4-7.2-13.4-11.4c0-6.7,5.5-10.7,14.8-10.7c9.1,0,14.8,4.1,14.8,10.7v0.2l-1,1h-8.6l-1-1
			v-0.2c0-0.4,0-1.5-4.3-1.5c-3.6,0-4.3,0.8-4.3,2.2c0,1.7,2.2,2.1,5.7,2.6c0.7,0.1,1.4,0.2,2.1,0.3c3.9,0.6,12,2,12,10.7
			C276.5,44.7,272.4,50.6,261,50.6z M246.5,38.7c0.1,6.7,5.6,10.9,14.5,10.9c10.7,0,14.5-5.4,14.5-10.4c0-7.9-7.3-9.1-11.2-9.7
			c-0.7-0.1-1.4-0.2-2.1-0.3c-3.4-0.5-6.5-0.9-6.5-3.6c0-2.7,2.1-3.2,5.3-3.2c2.4,0,5.1,0.3,5.3,2.3l0.4,0.4h7.8l0.4-0.4
			c-0.1-6-5.3-9.5-13.8-9.5c-8.7,0-13.8,3.6-13.8,9.7c0,5.5,4.2,9,12.5,10.4c0.5,0.1,1,0.2,1.5,0.2c3.3,0.5,5.7,0.9,5.7,3.7
			c0,2.9-3.4,3.2-6,3.2c-2.9,0-5.8-0.4-6-3.7l-0.4-0.4h-7.8L246.5,38.7z"/>
	</g>
	<g>
		<path d="M294.3,50.6c-10.7,0-17.5-7.2-17.5-18.2s6.9-18.2,17.5-18.2s17.5,7.2,17.5,18.2S305,50.6,294.3,50.6z M294.3,15.1
			c-10.1,0-16.5,6.8-16.5,17.2s6.5,17.2,16.5,17.2s16.5-6.8,16.5-17.2S304.4,15.1,294.3,15.1z M294.3,42.4c-5.1,0-8-3.7-8-10
			c0-6.4,2.9-10,8-10s8,3.7,8,10C302.3,38.7,299.4,42.4,294.3,42.4z M294.3,23.3c-4.5,0-7,3.2-7,9c0,5.8,2.5,9,7,9s7-3.2,7-9
			C301.3,26.5,298.8,23.3,294.3,23.3z"/>
	</g>
	<g>
		<path d="M345.3,49.9h-8.6l-1-1v-20c0-3.7-1.7-5.6-5-5.6c-4.7,0-7,2.7-7,8.4v17.3l-1,1h-8.6l-1-1V15.8l1-1h7.9l0.9,0.9l0.6,1.8h0.1
			c2.3-2.2,5.4-3.4,9.1-3.4c8.3,0,13.5,5.4,13.5,14.1v20.7L345.3,49.9z M337.1,48.9h7.8l0.4-0.4V28.3c0-8.1-4.8-13.1-12.5-13.1
			c-3.4,0-6.4,1.1-8.5,3.3l-0.1,0.1h-1.2l-0.8-2.3l-0.5-0.5h-7.1l-0.4,0.4v32.3l0.4,0.4h7.8l0.4-0.4V31.7c0-7.7,4.4-9.4,8-9.4
			c3.8,0,6,2.4,6,6.6v19.6L337.1,48.9z"/>
	</g>
	<g>
		<path d="M388.7,49.9h-9.9l-1.6-0.8L359,18v30.9l-1,1h-8.6l-1-1V2.1l1-1h9.9l1.6,0.8L379.1,33V2.1l1-1h8.6l1,1v46.8L388.7,49.9z
			 M379,48.9h9.2l0.4-0.4v-46l-0.4-0.4h-7.8l-0.4,0.4v31.7h-1.5l-0.1-0.2L360.2,2.7L359,2.2h-9.2l-0.4,0.4v46l0.4,0.4h7.8l0.4-0.4
			V16.9h1.5l0.1,0.2l18.3,31.2L379,48.9z"/>
	</g>
	<g>
		<path d="M405.3,50.6c-8.3,0-13.5-5.4-13.5-14.1V15.8l1-1h8.6l1,1v20c0,3.7,1.7,5.6,5,5.6c5.5,0,6.3-4.8,6.3-7.7V15.8l1-1h8.6l1,1
			v33.1l-1,1h-7.9l-0.9-0.9l-0.6-1.8h-0.1C413.1,48,410.8,50.6,405.3,50.6z M392.8,16.2v20.3c0,8.1,4.8,13.1,12.5,13.1
			c5.8,0,7.7-3.1,7.8-3.2l0.1-0.2h1.3l0.8,2.3l0.5,0.5h7.1l0.4-0.4V16.2l-0.4-0.4h-7.8l-0.4,0.4v17.5c0,5.5-2.7,8.7-7.3,8.7
			c-3.8,0-6-2.4-6-6.6V16.2l-0.4-0.4h-7.8L392.8,16.2z"/>
	</g>
	<g>
		<path d="M443.1,50.6c-10.7,0-17.5-7.2-17.5-18.2s6.6-18.2,16.9-18.2s16.9,7.2,16.9,18.2v2.9l-1,1h-21.1l-0.4,0.4
			c0.1,1.3,1.4,4.8,6.3,4.8c2.1,0,3.8-0.7,4.3-1.8l0.1-0.1l0.8-0.8h8.6l1,1l0,0.3C457.1,45.1,452.7,50.6,443.1,50.6z M442.4,15.1
			c-7.3,0-15.9,4.5-15.9,17.2c0,12.7,8.5,17.2,16.5,17.2c10.9,0,13.3-7,13.8-9.6l-0.4-0.4h-7.8l-0.5,0.5c-0.9,1.7-3.2,2.2-5.2,2.2
			c-6.1,0-7.3-4.7-7.3-6v-0.2l1-1h21.1l0.4-0.4v-2.5C458.3,19.6,449.7,15.1,442.4,15.1z M448.1,29.4h-11.3l-1-1v-0.2
			c0-1.3,1.1-6,6.6-6s6.6,4.7,6.6,6v0.2L448.1,29.4z M437.2,28.4h10.5l0.4-0.4c-0.1-0.9-0.8-4.8-5.6-4.8s-5.5,3.9-5.6,4.8
			L437.2,28.4z"/>
	</g>
</g>
</svg>
