<?xml version="1.0" encoding="utf-8"?>
<!-- Generator: Adobe Illustrator 18.0.0, SVG Export Plug-In . SVG Version: 6.00 Build 0)  -->
<!DOCTYPE svg PUBLIC "-//W3C//DTD SVG 1.1//EN" "http://www.w3.org/Graphics/SVG/1.1/DTD/svg11.dtd">
<svg version="1.1" id="Calque_1" xmlns="http://www.w3.org/2000/svg" xmlns:xlink="http://www.w3.org/1999/xlink" x="0px" y="0px"
	 viewBox="0 0 460.7 51.4" enable-background="new 0 0 460.7 51.4" xml:space="preserve">
<g>
	<path d="M17.3,50.1c-10.7,0-15.6-6.6-15.6-12.6c0-0.3,0-0.6,0.1-1l0.7-0.7h8.3l0.7,0.7c-0.1,0.4-0.1,0.7-0.1,1
		c0,2.4,1.7,4.4,5.9,4.4c5.8,0,9.8-4.6,9.8-10.5c0-3.9-2.1-5.9-5.6-5.9c-2.7,0-4.3,1.4-4.3,1.4h-4.4l-0.7-0.7l1.1-6.1l11.3-9.5
		l0.1-0.7H9.5L8.8,9.2L10,2.4l0.7-0.7h28l0.7,0.7l-1.2,6.8l-1,1.4l-10.3,8.2l-0.1,0.7c6.1,0,10.1,5,10.1,12
		C36.8,42.2,28.2,50.1,17.3,50.1z"/>
	<path d="M51.5,20.1h0.7c0,0,2.5-2.7,8.7-2.7c7.2,0,12.5,5.7,12.5,13.3c0,10.2-6.8,19.4-18.1,19.4c-10.2,0-15.8-5.7-15.8-14.3
		c0-3.5,0.3-6.7,1-10.2C42.8,10.5,48.4,1,61.3,1c8.4,0,14.7,4.6,14.7,10.9c0,0.3-0.1,0.7-0.1,0.7l-0.7,0.7h-8.3l-0.7-0.7
		c0-2-1.7-3.4-5.4-3.4C54.2,9.2,52.1,16.7,51.5,20.1z M63.6,31.3c0-3.5-1.6-5.8-5.6-5.8c-5.7,0-9.1,4.8-9.1,10.5
		c0,3.5,1.8,5.9,6.3,5.9C60.5,41.9,63.6,36.4,63.6,31.3z"/>
	<path d="M82.8,49.4l-0.7-0.7l6-33.9h-0.7l-5.3,4.6h-4.2l-0.7-0.7l1.2-6.8l11.3-9.5L91,1.7h8.3l0.7,0.7l-8.2,46.4l-0.7,0.7H82.8z"/>
	<path d="M112.2,50.1c-9.1,0-15.5-5-15.5-12.3c0-0.9,0.1-1.4,0.1-1.4l0.7-0.7h8.3l0.7,0.7c0,0-0.1,0.3-0.1,0.7
		c0,3.4,1.8,4.8,5.8,4.8c6.3,0,9.3-5,9.3-11.3c0-3.5-1.6-5.8-5.9-5.8c-2.7,0-5.6,0.7-7.9,4.1l-1.4,0.7l-6.8-0.7l-0.7-0.7l5.9-25.9
		l0.7-0.7h28l0.7,0.7L133,9.2l-0.7,0.7H113l-0.7,0.7l-2.3,9.2h0.7c0,0,2.5-3.1,7.9-3.1c7.6,0,12.5,5.5,12.5,14
		C131.2,41.8,124,50.1,112.2,50.1z"/>
	<path d="M196,49.4h-8.2l-0.7-0.7V22.1h-0.7l-10.9,26.6l-0.7,0.7h-7.5l-0.7-0.7l-10.9-26.6h-0.7v26.6l-0.7,0.7h-8.2l-0.7-0.7V2.4
		l0.7-0.7h10.2l0.7,0.7l13.6,33.4h0.7l13.6-33.4l0.7-0.7H196l0.7,0.7v46.4L196,49.4z"/>
	<path d="M228.8,49.4h-7.5l-0.7-0.7l-0.7-1.4h-0.7c0,0-2.7,2.7-7.5,2.7c-7.5,0-12.3-4.1-12.3-10.9c0-10.2,9.5-11.6,15-11.6
		c2.7,0,4.8,0.7,4.8,0.7l0.7-0.7v-0.7c0-3.4-0.7-4.1-4.8-4.1c-2,0-4.1,0-4.8,2l-0.7,0.7h-8.2l-0.7-0.7c0-4.1,3.4-10.2,14.3-10.2
		c10.9,0,14.3,5.5,14.3,15.7v18.4L228.8,49.4z M219.2,35.1c0,0-1.4-0.7-4.1-0.7c-4.1,0-6.1,1.4-6.1,4.1c0,2,1.4,3.4,4.8,3.4
		c3.4,0,6.1-2,6.1-4.8v-1.4L219.2,35.1z"/>
	<path d="M242,9.9h-8.2l-0.7-0.7V2.4l0.7-0.7h8.2l0.7,0.7v6.8L242,9.9z M242,49.4h-8.2l-0.7-0.7V16l0.7-0.7h8.2l0.7,0.7v32.7
		L242,49.4z"/>
	<path d="M261,50.1c-9.5,0-15-4.8-15-11.6l0.7-0.7h8.2l0.7,0.7c0,2.7,2,3.4,5.5,3.4c3.4,0,5.5-0.7,5.5-2.7c0-2.7-2.7-2.7-6.8-3.4
		c-4.1-0.7-13-2.7-13-10.9c0-5.5,4.1-10.2,14.3-10.2c8.2,0,14.3,3.4,14.3,10.2l-0.7,0.7h-8.2l-0.7-0.7c0-1.4-1.4-2-4.8-2
		c-3.4,0-4.8,0.7-4.8,2.7c0,2.7,4.1,2.7,8.2,3.4c4.1,0.7,11.6,2,11.6,10.2C276,44.6,271.9,50.1,261,50.1z"/>
	<path d="M294.3,50.1c-10.2,0-17-6.8-17-17.7s6.8-17.7,17-17.7c10.2,0,17,6.8,17,17.7S304.5,50.1,294.3,50.1z M294.3,22.8
		c-4.8,0-7.5,3.4-7.5,9.5s2.7,9.5,7.5,9.5c4.8,0,7.5-3.4,7.5-9.5S299.1,22.8,294.3,22.8z"/>
	<path d="M345.1,49.4h-8.2l-0.7-0.7V28.9c0-3.4-1.4-6.1-5.5-6.1c-4.8,0-7.5,2.7-7.5,8.9v17l-0.7,0.7h-8.2l-0.7-0.7V16l0.7-0.7h7.5
		l0.7,0.7l0.7,2h0.7c1.4-1.4,4.1-3.4,8.9-3.4c8.2,0,13,5.5,13,13.6v20.5L345.1,49.4z"/>
	<path d="M349.6,1.7h9.5l1.4,0.7l18.4,31.4h0.7V2.4l0.7-0.7h8.2l0.7,0.7v46.4l-0.7,0.7h-9.5l-1.4-0.7l-18.4-31.4h-0.7v31.4l-0.7,0.7
		h-8.2l-0.7-0.7V2.4L349.6,1.7z"/>
	<path d="M393,15.3h8.2l0.7,0.7v19.8c0,3.4,1.4,6.1,5.5,6.1c4.8,0,6.8-3.4,6.8-8.2V16l0.7-0.7h8.2l0.7,0.7v32.7l-0.7,0.7h-7.5
		l-0.7-0.7l-0.7-2h-0.7c0,0-2,3.4-8.2,3.4c-8.2,0-13-5.5-13-13.6V16L393,15.3z"/>
	<path d="M458.8,35.1l-0.7,0.7H437l-0.7,0.7c0,1.4,1.4,5.5,6.8,5.5c2,0,4.1-0.7,4.8-2l0.7-0.7h8.2l0.7,0.7
		c-0.7,4.1-4.1,10.2-14.3,10.2c-11.6,0-17-8.2-17-17.7c0-9.5,5.5-17.7,16.4-17.7s16.4,8.2,16.4,17.7V35.1z M448.6,28.3
		c0-0.7-0.7-5.5-6.1-5.5c-5.5,0-6.1,4.8-6.1,5.5l0.7,0.7h10.9L448.6,28.3z"/>
</g>
</svg>
