<?xml version="1.0" standalone="no"?>
<!DOCTYPE svg PUBLIC "-//W3C//DTD SVG 1.1//EN" "http://www.w3.org/Graphics/SVG/1.1/DTD/svg11.dtd" >
<svg xmlns="http://www.w3.org/2000/svg" xmlns:xlink="http://www.w3.org/1999/xlink" version="1.1">
<metadata>
Created by FontForge 20150824 at Mon Feb 22 04:32:53 2016
 By Everything Fonts
Copyright (c) 1991, 2002 Adobe Systems Incorporated. All Rights Reserved.  (c) Copyright 1991, 2002 The Monotype Corporation Plc. All Rights Reserved.
</metadata>
<defs>
<font id="PlantinStdLightItalic" horiz-adv-x="531" >
  <font-face 
    font-family="PlantinStdLightItalic"
    font-weight="300"
    font-style="italic"
    font-stretch="normal"
    units-per-em="1000"
    panose-1="2 4 5 3 6 5 6 9 2 3"
    ascent="695"
    descent="-305"
    x-height="444"
    cap-height="682"
    bbox="-261 -261 1121 891"
    underline-thickness="50"
    underline-position="-150"
    slope="-17"
    unicode-range="U+0020-FB02"
  />
<missing-glyph horiz-adv-x="651" 
d="M151 0v700h500v-700h-500zM401 395l170 255h-340zM431 350l170 -255v510zM231 50h340l-170 255zM201 605v-510l170 255z" />
    <glyph glyph-name=".notdef" horiz-adv-x="651" 
d="M151 0v700h500v-700h-500zM401 395l170 255h-340zM431 350l170 -255v510zM231 50h340l-170 255zM201 605v-510l170 255z" />
    <glyph glyph-name=".null" horiz-adv-x="0" 
 />
    <glyph glyph-name="nonmarkingreturn" horiz-adv-x="333" 
 />
    <glyph glyph-name="space" unicode=" " horiz-adv-x="265" 
 />
    <glyph glyph-name="exclam" unicode="!" horiz-adv-x="271" 
d="M152 199h-28l97 437q8 37 18.5 47.5t40.5 10.5q47 0 47 -29q0 -14 -13 -47zM89 103q23 0 40 -17t17 -40t-17 -40t-40 -17t-40 17t-17 40t17 40t40 17z" />
    <glyph glyph-name="quotedbl" unicode="&#x22;" horiz-adv-x="322" 
d="M321 367l-35 160q-11 52 -11 81q0 25 16 42t40 17q25 0 42 -16.5t17 -42.5q0 -31 -11 -81l-36 -160h-22zM119 367l-35 160q-11 52 -11 81q0 25 16 42t40 17q25 0 42 -16.5t17 -42.5q0 -31 -11 -81l-36 -160h-22z" />
    <glyph glyph-name="numbersign" unicode="#" horiz-adv-x="668" 
d="M257 482l41 200h51l-41 -200h212l42 200h51l-41 -200h100v-51h-111l-40 -189h151v-51h-161l-42 -201h-51l42 201h-213l-42 -201h-51l42 201h-101v51h111l40 189h-151v51h162zM510 431h-213l-40 -189h213z" />
    <glyph glyph-name="dollar" unicode="$" horiz-adv-x="521" 
d="M135 -101l27 102q-95 48 -95 124q0 55 36 55q17 0 25.5 -15.5t8.5 -36.5q0 -4 -1 -15.5t-1 -16.5q0 -43 35 -65l82 302q-73 71 -73 151q0 62 43 106.5t114 57.5l9 34h25l-8 -31q30 0 59 -9l10 40h25l-12 -47q91 -39 91 -116q0 -25 -10 -41t-27 -16q-14 0 -23.5 11
t-9.5 28q0 5 3 23t3 27q0 32 -35 55l-74 -275q47 -51 64.5 -83.5t17.5 -71.5q0 -53 -27.5 -98t-73.5 -66q-36 -17 -72 -21l-25 -92h-25l25 90q-30 -3 -61 5l-25 -95h-25zM277 426l50 189q-81 -40 -81 -113q0 -41 31 -76zM354 621l-58 -218l47 -52l70 264q-24 8 -43 8
q-9 0 -16 -2zM271 310l-78 -289q31 -16 59 -5l66 245zM338 238l-60 -220q45 11 70.5 45.5t25.5 83.5q0 45 -36 91z" />
    <glyph glyph-name="percent" unicode="%" horiz-adv-x="792" 
d="M750 218q0 -87 -50 -155.5t-112 -68.5q-44 0 -70.5 33t-26.5 87q0 84 49.5 152t110.5 68q43 0 71 -33t28 -83zM702 242q0 32 -14 50.5t-37 18.5q-21 0 -38 -17q-29 -29 -51.5 -102t-22.5 -109q0 -29 14 -47.5t37 -18.5q24 0 41 17q27 27 49 101.5t22 106.5zM382 546
q0 -87 -50 -155.5t-112 -68.5q-44 0 -70.5 33t-26.5 87q0 84 49.5 152t110.5 68q43 0 71 -33t28 -83zM334 570q0 32 -14 50.5t-37 18.5q-21 0 -38 -17q-29 -29 -51.5 -102t-22.5 -109q0 -29 14 -47.5t37 -18.5q24 0 41 17q27 27 49 101.5t22 106.5zM84 -42l646 736h48
l-646 -736h-48z" />
    <glyph glyph-name="ampersand" unicode="&#x26;" horiz-adv-x="938" 
d="M400 447l-5 -24q-3 0 -8.5 0.5t-13.5 0.5q-42 1 -87 -14t-70 -40q-54 -54 -54 -121q0 -80 74 -139.5t196 -59.5q75 0 140.5 22t105.5 62q57 57 57 129q0 59 -42 100t-105 41q-44 0 -75.5 -21t-31.5 -51q0 -20 13.5 -30.5t30.5 -13t30.5 -14t13.5 -33.5q0 -17 -11 -28.5
t-27 -11.5q-33 0 -57 31.5t-24 74.5q0 62 46 106.5t110 44.5q37 0 79.5 -14.5t73.5 -32t65.5 -32t58.5 -14.5q23 0 39.5 17.5t16.5 42.5q0 19 -13.5 27.5t-29 9.5t-29 9t-13.5 26q0 17 12 29.5t28 12.5q31 0 52.5 -29.5t21.5 -71.5q0 -52 -33.5 -90.5t-78.5 -38.5
q-51 0 -110 35l-2 -2q22 -38 22 -92q0 -85 -65 -150q-61 -61 -130 -86.5t-159 -25.5q-186 0 -271 85q-64 64 -64 145q0 146 180 212q-41 34 -41 82q0 65 67 123.5t163 58.5q68 0 117 -26.5t49 -63.5q0 -17 -12.5 -30t-29.5 -13q-25 0 -36 16.5t-13.5 36t-21.5 36t-58 16.5
q-64 0 -106 -45t-42 -90q0 -35 28 -57t79 -27z" />
    <glyph glyph-name="quotesingle" unicode="'" horiz-adv-x="161" 
d="M140 367l-35 160q-11 52 -11 81q0 25 16 42t40 17q26 0 42.5 -16.5t16.5 -42.5q0 -31 -11 -81l-36 -160h-22z" />
    <glyph glyph-name="parenleft" unicode="(" horiz-adv-x="271" 
d="M394 691l14 -9q-24 -20 -54 -50q-104 -104 -166 -261t-62 -305q0 -132 40 -240l-13 -10q-68 146 -68 298q0 102 27.5 195t74 164.5t98 124.5t109.5 93z" />
    <glyph glyph-name="parenright" unicode=")" horiz-adv-x="271" 
d="M-58 -184l-14 9q21 17 50 46q111 111 171.5 268.5t60.5 301.5q0 64 -12 133q-9 51 -28 108l12 9q69 -145 69 -298q0 -172 -79 -320t-230 -257z" />
    <glyph glyph-name="asterisk" unicode="*" horiz-adv-x="469" 
d="M394 694l25 -7l-11 -172l165 -25v-26l-165 -39l27 -168l-24 -11l-87 149l-153 -83l-16 22l111 130l-124 118l16 22l159 -64z" />
    <glyph glyph-name="plus" unicode="+" horiz-adv-x="667" 
d="M110 290h237v237h53v-237h237v-53h-237v-237h-53v237h-237v53z" />
    <glyph glyph-name="comma" unicode="," horiz-adv-x="271" 
d="M-20 -149v28q77 1 118.5 35.5t41.5 77.5q0 16 -12.5 26.5t-27.5 15t-27.5 18t-12.5 34.5q0 23 16.5 38.5t41.5 15.5q35 0 58.5 -30.5t23.5 -74.5q0 -73 -62 -127.5t-158 -56.5z" />
    <glyph glyph-name="hyphen" unicode="-" horiz-adv-x="375" 
d="M70 261h300l-22 -70h-300z" />
    <glyph glyph-name="period" unicode="." horiz-adv-x="271" 
d="M130 103q23 0 40 -17t17 -40t-17 -40t-40 -17t-40 17t-17 40t17 40t40 17z" />
    <glyph glyph-name="slash" unicode="/" horiz-adv-x="267" 
d="M264 694h43l-224 -829h-43z" />
    <glyph glyph-name="zero" unicode="0" 
d="M94 209q0 86 30 184q40 126 114 200t142 74q75 0 115 -67t40 -145q0 -103 -38 -210.5t-106 -182t-145 -74.5q-65 0 -108.5 57t-43.5 164zM160 146q0 -51 23 -88.5t61 -37.5q86 0 143 156q26 69 51.5 169t25.5 172q0 47 -22 82.5t-62 35.5q-35 0 -65.5 -29.5t-54.5 -84.5
t-35 -86.5t-26 -81.5q-39 -135 -39 -207z" />
    <glyph glyph-name="one" unicode="1" 
d="M451 667l-137 -512q-15 -59 -15 -75q0 -48 74 -50l-8 -30h-259l8 30q50 -1 75.5 22t40.5 80l91 339q7 25 7 37q0 23 -20 32.5t-72 7.5l8 30q58 7 93 26.5t78 62.5h36z" />
    <glyph glyph-name="two" unicode="2" 
d="M139 76h170q60 0 84 20t32 73h30l-33 -169h-363v28q24 31 55 65t52 55t63 62.5t59 58.5q82 82 115 133.5t33 93.5q0 50 -33.5 82t-85.5 32q-74 0 -157 -80l-22 21q96 116 216 116q73 0 119 -41t46 -105q0 -47 -24 -89.5t-79 -97.5q-33 -33 -123.5 -115.5t-153.5 -142.5z
" />
    <glyph glyph-name="three" unicode="3" 
d="M197 331l8 33q12 -2 48 -2q21 0 51.5 9t64 26.5t57 50.5t23.5 74q0 37 -28 63.5t-66 26.5q-69 0 -136 -74l-22 21q77 108 181 108q63 0 104.5 -37.5t41.5 -94.5q0 -62 -46 -110.5t-128 -72.5q104 -53 104 -157q0 -81 -60 -141q-66 -66 -207 -66q-45 0 -75.5 7.5t-41 16.5
t-10.5 18q0 10 9 24.5t22 14.5q11 0 29.5 -12t47 -24t62.5 -12q72 0 107.5 47.5t35.5 106.5q0 49 -24 88.5t-62 54.5q-35 13 -90 13z" />
    <glyph glyph-name="four" unicode="4" 
d="M400 195l-56 -207h-78l56 207h-259v65l400 407h63l-110 -412h115l-17 -60h-114zM338 255l87 325l-2 2l-321 -327h236z" />
    <glyph glyph-name="five" unicode="5" 
d="M280 656h218l12 20l27 -14l-40 -73h-217l-47 -108q115 -27 172.5 -95t57.5 -154q0 -33 -9 -65.5t-30 -65t-52.5 -57.5t-80.5 -40.5t-110 -15.5q-55 0 -91 12t-36 30q0 13 11 26t23 13q2 0 55.5 -19t105.5 -19q68 0 115 47.5t47 115.5q0 46 -22 85t-59 66t-77.5 45
t-86.5 29z" />
    <glyph glyph-name="six" unicode="6" 
d="M521 667l20 -20q-114 -42 -196 -115.5t-125 -171.5l2 -2q74 46 135 46q69 0 109 -44.5t40 -120.5q0 -103 -66.5 -177t-158.5 -74q-79 0 -129 61.5t-50 157.5q0 66 32.5 141.5t87 142.5t134 116t165.5 60zM180 169q0 -67 28.5 -107.5t74.5 -40.5q58 0 98 61t40 148
q0 59 -26 92t-71 33q-56 0 -118 -49q-26 -85 -26 -137z" />
    <glyph glyph-name="seven" unicode="7" 
d="M594 656l-408 -668h-51l363 594h-203q-33 0 -52 -16t-32 -51h-30l37 141h376z" />
    <glyph glyph-name="eight" unicode="8" 
d="M537 524q0 -49 -36 -87.5t-131 -80.5q106 -105 106 -182q0 -79 -59 -132.5t-147 -53.5t-145.5 47t-57.5 118q0 63 50 110t156 84q-96 93 -96 160q0 65 57.5 112.5t135.5 47.5q69 0 118 -42t49 -101zM348 382q128 66 128 148q0 45 -33 74.5t-83 29.5q-47 0 -80 -28
t-33 -68q0 -28 22.5 -62.5t78.5 -93.5zM297 323q-169 -78 -169 -179q0 -52 41 -87.5t100 -35.5q58 0 97.5 35t39.5 88q0 33 -24.5 73.5t-84.5 105.5z" />
    <glyph glyph-name="nine" unicode="9" 
d="M115 -12l-20 20q114 42 196 115.5t125 171.5l-2 2q-74 -46 -135 -46q-68 0 -108 44.5t-40 120.5q0 104 66 177.5t159 73.5q78 0 128.5 -61.5t50.5 -157.5q0 -60 -30.5 -133t-83 -142t-134 -121t-172.5 -64zM457 486q0 67 -28.5 107.5t-74.5 40.5q-58 0 -98.5 -61
t-40.5 -148q0 -59 26 -92t71 -33q56 0 118 49q27 85 27 137z" />
    <glyph glyph-name="colon" unicode=":" horiz-adv-x="271" 
d="M207 446q23 0 40 -17t17 -40t-17 -40t-40 -17t-40 17t-17 40t17 40t40 17zM130 103q23 0 40 -17t17 -40t-17 -40t-40 -17t-40 17t-17 40t17 40t40 17z" />
    <glyph glyph-name="semicolon" unicode=";" horiz-adv-x="271" 
d="M-20 -149v28q77 1 118.5 35.5t41.5 77.5q0 16 -12.5 26.5t-27.5 15t-27.5 18t-12.5 34.5q0 23 16.5 38.5t41.5 15.5q35 0 58.5 -30.5t23.5 -74.5q0 -73 -62 -127.5t-158 -56.5zM207 446q23 0 40 -17t17 -40t-17 -40t-40 -17t-40 17t-17 40t17 40t40 17z" />
    <glyph glyph-name="less" unicode="&#x3c;" horiz-adv-x="667" 
d="M180 264l456 -188v-57l-526 222v47l526 222v-57z" />
    <glyph glyph-name="equal" unicode="=" horiz-adv-x="667" 
d="M110 406h527v-53h-527v53zM110 178h527v-53h-527v53z" />
    <glyph glyph-name="greater" unicode="&#x3e;" horiz-adv-x="667" 
d="M566 265l-456 188v57l526 -222v-47l-526 -222v57z" />
    <glyph glyph-name="question" unicode="?" horiz-adv-x="417" 
d="M174 184h-27q5 27 10 61.5t7.5 51.5t7.5 33t12 23q8 8 36 9.5t63 9.5t59 32q38 38 38 102q0 49 -25 78t-68 29q-7 0 -32 -2.5t-29 -2.5q-14 0 -24 10t-10 25q0 21 18 36t43 15q58 0 111.5 -66.5t53.5 -162.5q0 -87 -49 -136q-25 -25 -58 -34.5t-62.5 -15.5t-43.5 -20
q-24 -24 -31 -75zM135 103q23 0 40 -17t17 -40t-17 -40t-40 -17t-40 17t-17 40t17 40t40 17z" />
    <glyph glyph-name="at" unicode="@" horiz-adv-x="917" 
d="M729 469l-92 -317q-11 -39 -11 -63q0 -16 11 -27t25 -11q27 0 61 19.5t62 50.5q40 44 63.5 109.5t23.5 131.5q0 132 -86 218q-87 87 -230 87q-165 0 -287 -122q-67 -67 -101.5 -155.5t-34.5 -183.5q0 -173 108 -281q107 -107 274 -107q177 0 296 119q60 60 99 152h29
q-39 -127 -157.5 -213t-267.5 -86q-187 0 -308 122t-121 310q0 199 133.5 335.5t328.5 136.5q166 0 259.5 -94t93.5 -240q0 -79 -31 -155.5t-82 -123.5q-72 -66 -166 -66q-39 0 -61 19t-22 53q0 25 5 49l5 22l-2 2q-53 -75 -95.5 -110t-87.5 -35q-35 0 -59.5 32t-24.5 78
q0 82 43.5 165.5t106 134.5t116.5 51q29 0 49.5 -18.5t24.5 -50.5h2l15 54zM600 380q0 30 -14 49t-37 19q-38 0 -80.5 -58.5t-68.5 -129.5t-26 -115q0 -23 13.5 -41t30.5 -18q33 0 71 38q51 51 81 123.5t30 132.5z" />
    <glyph glyph-name="A" unicode="A" horiz-adv-x="677" 
d="M631 694l-54 -544q-3 -26 -3 -54q0 -41 18.5 -56.5t67.5 -14.5l-7 -25h-281l7 25q68 0 86.5 22t26.5 103l12 127h-249l-79 -96q-59 -73 -59 -102q0 -52 76 -54l-7 -25h-235l7 25q30 9 54 29.5t76 82.5l470 557h73zM508 311l32 312l-2 2l-256 -314h226z" />
    <glyph glyph-name="B" unicode="B" horiz-adv-x="688" 
d="M174 682h311q90 0 136 -27q36 -21 56.5 -55t20.5 -72q0 -65 -54.5 -111t-149.5 -61v-2q77 -13 117.5 -57t40.5 -103q0 -30 -13 -60.5t-41.5 -62t-86 -51.5t-135.5 -20h-368l8 25q52 0 77.5 30.5t42.5 94.5l102 385q14 52 14 70q0 55 -85 52zM283 367h86q107 0 166.5 42.5
t59.5 121.5q0 60 -42 93t-119 33h-74zM276 342l-52 -193q-15 -57 -15 -66q0 -31 30 -44.5t105 -13.5q109 0 160 51t51 120q0 64 -45 105t-137 41h-97z" />
    <glyph glyph-name="C" unicode="C" horiz-adv-x="750" 
d="M781 626l-35 -153h-25q7 68 -27 118q-10 15 -26 29.5t-53 30t-82 15.5q-111 0 -193 -82q-66 -66 -102 -157.5t-36 -164.5q0 -107 62 -176.5t159 -69.5q163 0 255 226h21l-40 -170q-123 -84 -251 -84q-132 0 -220.5 79t-88.5 197q0 76 34.5 153.5t92 138.5t139 99.5
t168.5 38.5q112 0 248 -68z" />
    <glyph glyph-name="D" unicode="D" horiz-adv-x="771" 
d="M181 682h291q133 0 211.5 -89.5t78.5 -210.5q0 -43 -11.5 -91t-40.5 -100.5t-71.5 -94.5t-111 -69t-153.5 -27h-353l7 25q45 4 67.5 30t40.5 95l102 387q13 50 13 67q2 54 -77 53zM360 657l-134 -502q-16 -58 -16 -71q0 -56 135 -56t214 79q100 100 100 279
q0 123 -63 197t-180 74h-56z" />
    <glyph glyph-name="E" unicode="E" horiz-adv-x="646" 
d="M279 345l-59 -219q-9 -32 -9 -48q0 -23 24.5 -38t77.5 -15h75q127 0 225 142h25l-74 -167h-554l7 25q49 0 76 27t41 81l106 403q15 57 15 68q1 26 -20 40t-60 13l7 25h527l-41 -154h-25q4 15 4 31q0 47 -22.5 72.5t-65.5 25.5h-196l-77 -287h141q60 0 94 24t53 74h25
l-64 -239h-25q5 48 -15 82t-76 34h-140z" />
    <glyph glyph-name="F" unicode="F" horiz-adv-x="615" 
d="M359 657l-75 -283h142q63 0 96.5 21.5t53.5 70.5h25l-62 -232h-25q2 51 -17.5 83t-64.5 32h-155l-53 -199q-14 -51 -14 -71q0 -24 17 -39t51 -15h27l-8 -25h-292l8 25q89 1 117 107l108 405q14 51 14 68q0 28 -25.5 42.5t-68.5 11.5l7 23h544l-36 -160h-25
q1 80 -24 107.5t-113 27.5h-152z" />
    <glyph glyph-name="G" unicode="G" horiz-adv-x="781" 
d="M810 635l-37 -156h-25q0 34 -9.5 65.5t-30 59.5t-59.5 45t-92 17q-133 0 -227 -94q-60 -60 -92.5 -145t-32.5 -173q0 -107 59 -172.5t156 -65.5q68 0 150 46l36 134q15 55 15 72q0 25 -24 40.5t-71 12.5l6 25h282l-6 -24q-49 -8 -73.5 -32t-39.5 -79l-46 -173
q-44 -21 -113.5 -35.5t-125.5 -14.5q-139 0 -223.5 77.5t-84.5 208.5q0 110 65 207.5t174 155t233 57.5q114 0 236 -59z" />
    <glyph glyph-name="H" unicode="H" horiz-adv-x="802" 
d="M273 332l-48 -182q-14 -51 -14 -72q0 -25 20.5 -39.5t55.5 -13.5l-8 -25h-270l8 25q85 0 112 99l110 409q14 53 14 71q0 24 -21 39.5t-59 13.5l6 25h273l-6 -25q-45 -2 -71.5 -26t-41.5 -79l-49 -181h358l44 162q14 53 14 69q0 50 -75 55l6 25h272l-6 -25
q-52 -1 -77.5 -27t-40.5 -83l-106 -397q-13 -47 -13 -71q0 -25 20 -40t56 -14l-8 -25h-280l8 25q93 -4 122 105l53 202h-358z" />
    <glyph glyph-name="I" unicode="I" horiz-adv-x="354" 
d="M180 682h280l-8 -25q-51 1 -79.5 -25t-43.5 -84l-105 -398q-15 -58 -15 -70q0 -50 75 -55l-7 -25h-272l7 25q46 -1 75 27t45 87l104 394q15 57 15 70q0 25 -20.5 40t-58.5 14z" />
    <glyph glyph-name="J" unicode="J" horiz-adv-x="490" 
d="M408 346l-49 -182q-31 -116 -60 -179t-69 -103q-70 -70 -170 -70q-57 0 -96.5 22.5t-39.5 55.5q0 19 11.5 31.5t29.5 12.5q20 0 34.5 -14.5t22 -32.5t25 -32.5t44.5 -14.5q52 0 86.5 52.5t69.5 185.5l72 268h-150l11 40h150q17 79 68 160l-8 -1h-11q-33 0 -64 19
q-10 6 -49 41q-33 29 -60 29q-26 0 -44.5 -16.5t-18.5 -38.5q0 -12 8.5 -20t19.5 -12.5t19.5 -16t8.5 -27.5q0 -17 -12.5 -30t-30.5 -13q-23 0 -39 21.5t-16 52.5q0 53 45 106.5t110 53.5q30 0 52 -10.5t35.5 -25.5t25 -29.5t26 -24t32.5 -8.5q38 98 88 98q16 0 26.5 -12
t10.5 -30q0 -54 -87 -96l-46 -170h83l-11 -40h-83z" />
    <glyph glyph-name="K" unicode="K" horiz-adv-x="771" 
d="M175 682h281l-8 -25q-90 6 -118 -101l-108 -406q-14 -53 -14 -71q0 -57 92 -54l-7 -25h-289l7 25q88 -3 116 104l108 404q14 50 14 70q0 24 -21 39.5t-61 14.5zM555 46q-59 59 -149 168.5t-115 137.5q70 40 191 118t142 99q26 26 26 50q0 40 -67 38l7 25h278l-7 -25
q-72 -6 -153 -66l-63 -47q-37 -28 -160 -105l-92 -57l-13 -9q30 -29 99 -110.5t149 -161.5q76 -76 147 -76l-6 -25h-156q-27 15 -58 46z" />
    <glyph glyph-name="L" unicode="L" horiz-adv-x="604" 
d="M195 682h262l-6 -25q-53 0 -79 -29.5t-43 -94.5l-111 -414q-8 -28 -8 -39q0 -55 92 -55h77q84 0 138 32.5t112 113.5h22l-74 -171h-571l8 25q55 1 80.5 28.5t42.5 92.5l103 387q14 53 14 70q0 49 -65 54z" />
    <glyph glyph-name="M" unicode="M" horiz-adv-x="990" 
d="M251 682h187q-9 -31 -9 -68q0 -68 18 -188l19 -122q20 -133 30 -177q96 148 166 249l69 99q93 134 103 207h202l-6 -25q-56 0 -82.5 -25t-34.5 -94l-46 -390q-6 -45 -6 -59q0 -32 17.5 -46.5t57.5 -17.5l-8 -25h-264l8 25q51 0 74 26t30 82l58 447l-2 2
q-24 -46 -186.5 -283t-182.5 -299h-46q4 61 -34.5 287.5t-39.5 302.5h-2l-149 -388q-33 -85 -33 -120q0 -28 23 -43.5t60 -13.5l-8 -25h-238l8 25q44 4 77.5 41t70.5 128l134 329q24 60 24 80q0 55 -66 54z" />
    <glyph glyph-name="N" unicode="N" horiz-adv-x="792" 
d="M153 682h145q18 -25 41 -64l281 -490l102 381q14 51 14 73q0 37 -23.5 56.5t-63.5 18.5l6 25h229l-6 -25q-50 0 -76.5 -32t-51.5 -124l-109 -407q6 -16 27.5 -49.5t27.5 -44.5h-98q-24 32 -74 121l-248 442l-107 -399q-13 -47 -13 -65q0 -35 25 -54.5t74 -19.5l-6 -25
h-239l6 25q47 2 73 26.5t40 79.5l124 465q-22 38 -43 49.5t-64 11.5z" />
    <glyph glyph-name="O" unicode="O" horiz-adv-x="792" 
d="M102 268q0 81 38.5 161t98 137t133.5 92.5t144 35.5q118 0 197 -84t79 -208q0 -97 -55 -192.5t-153.5 -158.5t-210.5 -63q-115 0 -193 80.5t-78 199.5zM200 238q0 -96 51 -159t137 -63q45 0 91.5 20.5t80.5 54.5q57 57 95.5 159t38.5 184q0 105 -52.5 168.5t-138.5 63.5
q-89 0 -161 -72t-107 -172t-35 -184z" />
    <glyph glyph-name="P" unicode="P" horiz-adv-x="635" 
d="M360 657l-136 -509q-14 -55 -14 -69q0 -59 95 -54l-6 -25h-290l6 25q46 2 72.5 24.5t42.5 80.5l109 403q14 51 14 71q0 25 -22.5 40.5t-63.5 12.5l6 25h295q110 0 166 -51t56 -118q0 -82 -72.5 -137.5t-179.5 -55.5q-87 0 -87 24q0 12 18 12h51q76 0 121.5 46t45.5 118
q0 53 -41.5 95t-131.5 42h-54z" />
    <glyph glyph-name="Q" unicode="Q" horiz-adv-x="792" 
d="M386 -12l-149 -110l2 -2q92 34 150 34q45 0 116 -15q79 -15 115 -15q76 0 174 43v-25q-156 -86 -277 -86q-50 0 -128 18.5t-107 18.5q-60 0 -140 -37l-19 15l227 161q-114 12 -181 91.5t-67 188.5q0 108 64.5 208.5t160 159t187.5 58.5q121 0 199.5 -85.5t78.5 -206.5
q0 -97 -54.5 -191.5t-149.5 -157t-202 -65.5zM200 238q0 -94 50 -158t138 -64q49 0 95.5 22.5t76.5 52.5q58 58 96 159t38 184q0 105 -52.5 168.5t-138.5 63.5q-89 0 -160 -71t-107 -170.5t-36 -186.5z" />
    <glyph glyph-name="R" unicode="R" horiz-adv-x="698" 
d="M276 339l-51 -191q-14 -55 -14 -71q0 -26 23 -40.5t63 -11.5l-6 -25h-274l6 25q45 4 70 29t38 75l109 409q14 53 14 69q0 25 -21.5 39.5t-64.5 12.5l6 23h329q96 0 147 -47t51 -109q0 -71 -65 -126.5t-186 -60.5v-2q21 -14 48.5 -67t62 -117t67.5 -97q24 -24 54 -31
l-6 -25h-120q-28 28 -89.5 150.5t-110.5 188.5h-80zM283 364h83q109 0 170.5 42.5t61.5 114.5q0 59 -41 97.5t-115 38.5h-80z" />
    <glyph glyph-name="S" unicode="S" horiz-adv-x="594" 
d="M27 67l43 159l24 -6q-8 -83 43 -143.5t151 -60.5q73 0 119.5 36.5t46.5 92.5q0 38 -28.5 77t-69 73l-81 68t-69 75.5t-28.5 83.5q0 76 64 124t164 48q112 0 225 -64l-38 -145l-22 6q-3 84 -47.5 129.5t-121.5 45.5q-62 0 -101.5 -30.5t-39.5 -77.5q0 -35 28.5 -70
t68.5 -66.5t80.5 -66t69 -81t28.5 -98.5q0 -74 -60.5 -131t-176.5 -57q-62 0 -136 21.5t-136 57.5z" />
    <glyph glyph-name="T" unicode="T" horiz-adv-x="698" 
d="M191 682h607l-44 -164h-24q2 76 -19.5 107.5t-82.5 31.5h-97l-137 -509q-15 -54 -15 -70q0 -54 88 -53l-6 -25h-298l6 25q54 -3 84.5 21.5t44.5 75.5l144 535h-95q-54 0 -89 -27t-87 -112h-24z" />
    <glyph glyph-name="U" unicode="U" horiz-adv-x="760" 
d="M150 682h285l-6 -25q-90 4 -116 -92l-86 -321q-11 -36 -11 -72q0 -60 55.5 -101.5t138.5 -41.5q112 0 173 61q40 40 58 112l71 297q11 44 11 80q0 37 -25 58t-67 20l6 25h238l-6 -25q-52 1 -79.5 -31.5t-47.5 -113.5l-76 -313q-26 -106 -99.5 -158.5t-184.5 -52.5
q-64 0 -115 18.5t-80 47.5t-43.5 60.5t-14.5 62.5q0 32 16 93l71 265q15 54 15 70q0 25 -22.5 39.5t-64.5 12.5z" />
    <glyph glyph-name="V" unicode="V" horiz-adv-x="719" 
d="M155 682h258l-6 -25q-50 -1 -69.5 -29.5t-19.5 -83.5v-448h2l303 374q41 50 56.5 77t15.5 51q0 50 -65 59l6 25h221l-6 -25q-15 -2 -24.5 -5.5t-24 -14.5t-30.5 -30l-438 -532q-59 -71 -66 -87h-53q14 56 14 158v413q0 54 -15.5 76.5t-64.5 21.5z" />
    <glyph glyph-name="W" unicode="W" horiz-adv-x="990" 
d="M540 115l-21 175l-148 -167q-28 -31 -56 -73t-36 -62h-50q6 28 4 55l-30 495q-4 65 -14.5 86.5t-44.5 32.5l6 25h207l-6 -25q-71 -6 -65 -126l19 -331q5 -95 0 -115l2 -2l208 245l-27 230q-7 56 -22 76.5t-50 22.5l6 25h208l-6 -25q-33 -1 -47.5 -22t-9.5 -57l21 -164
l103 119q42 48 42 78q0 36 -42 46l6 25h176l-6 -25q-24 -6 -39.5 -18.5t-53.5 -56.5l-181 -209l24 -204q1 -13 7 -79l304 405q49 65 49 99q0 45 -49 63l6 25h187l-6 -25q-18 -3 -36 -19t-53 -62l-380 -501q-40 -53 -58 -87h-45q9 34 -3 127z" />
    <glyph glyph-name="X" unicode="X" horiz-adv-x="781" 
d="M497 373l125 -234q41 -77 60.5 -94t70.5 -20l-6 -25h-291l6 25q87 0 87 46q0 20 -25 68l-94 177l-191 -164q-49 -42 -49 -72q0 -50 72 -55l-6 -25h-248l6 25q39 6 92 51l312 265l-138 259q-18 34 -35.5 43.5t-62.5 13.5l7 25h279l-7 -25q-78 4 -78 -49q0 -25 26 -73
l75 -138l129 110q41 35 57 57t16 43q0 41 -59 50l7 25h252l-7 -25q-56 -5 -124 -62z" />
    <glyph glyph-name="Y" unicode="Y" horiz-adv-x="740" 
d="M453 257l-29 -109q-14 -53 -14 -69q0 -59 94 -54l-6 -25h-292l6 25q89 -3 115 93l37 139l-123 298q-27 66 -47 84t-64 18l6 25h273l-6 -25q-81 0 -81 -52q0 -41 22 -91l99 -229l177 205q44 51 57 72.5t13 44.5q0 22 -17 36.5t-53 13.5l6 25h234l-6 -25q-29 -2 -55 -20.5
t-82 -81.5z" />
    <glyph glyph-name="Z" unicode="Z" horiz-adv-x="677" 
d="M726 682v-20l-583 -637h225q72 0 124.5 34.5t109.5 114.5h24l-71 -174h-532v25l579 632h-192q-65 0 -109.5 -28t-93.5 -94h-22l50 147h491z" />
    <glyph glyph-name="bracketleft" unicode="[" horiz-adv-x="333" 
d="M104 -117h139l-8 -26h-182l227 825h180l-8 -26h-132z" />
    <glyph glyph-name="backslash" unicode="\" horiz-adv-x="267" 
d="M103 694l224 -829h-43l-224 829h43z" />
    <glyph glyph-name="bracketright" unicode="]" horiz-adv-x="333" 
d="M270 656h-139l8 26h182l-228 -825h-179l7 26h133z" />
    <glyph glyph-name="asciicircum" unicode="^" horiz-adv-x="486" 
d="M292 682l209 -350h-51l-168 281l-167 -281h-51l209 350h19z" />
    <glyph glyph-name="underscore" unicode="_" horiz-adv-x="500" 
d="M506 -125h-512v50h512v-50z" />
    <glyph glyph-name="grave" unicode="`" horiz-adv-x="333" 
d="M273 511l-99 115q-9 9 -9 17q0 15 22 15h33q23 0 32.5 -5.5t14.5 -20.5l37 -121h-31z" />
    <glyph glyph-name="a" unicode="a" horiz-adv-x="500" 
d="M491 441l-111 -363q-12 -41 13 -41q30 0 82 92h29q-27 -61 -67 -100.5t-75 -39.5q-23 0 -37 18.5t-14 47.5q0 31 18 86l-2 2q-81 -154 -189 -154q-43 0 -72 32t-29 80q0 60 31 124t76 111t95 77.5t87 30.5q73 0 102 -53q18 19 37 50h26zM182 48q13 0 36.5 10t44.5 31
q45 45 82.5 125.5t37.5 132.5q0 31 -18 50t-49 19q-50 0 -101 -51q-45 -45 -76.5 -113.5t-31.5 -118.5q0 -38 20.5 -61.5t54.5 -23.5z" />
    <glyph glyph-name="b" unicode="b" horiz-adv-x="458" 
d="M302 694l-112 -363l2 -2q45 65 78.5 90t75.5 25q49 0 79.5 -36t30.5 -93q0 -128 -119 -247q-79 -79 -161 -79q-52 0 -84 31.5t-32 81.5q0 33 17 88l126 412q6 20 6 28q0 16 -14.5 21.5t-63.5 4.5l8 26q101 -1 149 12h14zM310 382q-39 0 -84 -45q-36 -36 -66 -111.5
t-30 -121.5q0 -35 20 -55.5t54 -20.5q48 0 86 38q40 40 67.5 106.5t27.5 117.5q0 41 -20.5 66.5t-54.5 25.5z" />
    <glyph glyph-name="c" unicode="c" horiz-adv-x="375" 
d="M342 139h30q-85 -150 -208 -150q-54 0 -88 36.5t-34 94.5q0 68 44 145.5t107 128t115 50.5q34 0 56 -20t22 -51q0 -20 -11 -33t-28 -13q-34 0 -34 42q0 25 -5 33.5t-21 8.5q-27 0 -71 -41q-47 -45 -72 -108.5t-25 -117.5q0 -44 24.5 -72.5t63.5 -28.5q35 0 65.5 22
t69.5 74z" />
    <glyph glyph-name="d" unicode="d" horiz-adv-x="510" 
d="M419 416l44 161q13 52 13 54q0 26 -55 26h-36l8 25q124 -4 159 12h14l-172 -619q-11 -38 12 -38q37 0 78 92h29q-22 -61 -60.5 -100.5t-76.5 -39.5q-21 0 -35 16.5t-14 41.5q0 33 19 106l-2 2q-83 -166 -193 -166q-45 0 -75 32.5t-30 80.5q0 67 46.5 148t116 137.5
t129.5 56.5q43 0 81 -28zM190 47q40 0 88 48q42 42 79.5 125t37.5 129q0 29 -19 48t-50 19q-51 0 -101 -50q-46 -46 -76.5 -113t-30.5 -120q0 -40 19.5 -63t52.5 -23z" />
    <glyph glyph-name="e" unicode="e" horiz-adv-x="375" 
d="M329 134h32q-82 -145 -194 -145q-56 0 -91 35.5t-35 91.5q0 72 43.5 150t105 128t113.5 50q35 0 55.5 -21t20.5 -57q0 -50 -42 -92q-36 -36 -98 -62t-122 -32q-5 -10 -5 -41q0 -42 24 -69t63 -27q33 0 69.5 24t60.5 67zM323 351q0 23 -15.5 38.5t-38.5 15.5
q-38 0 -76.5 -53.5t-67.5 -146.5q106 14 165 73q33 33 33 73z" />
    <glyph glyph-name="f" unicode="f" horiz-adv-x="271" 
d="M170 430l23 80q24 84 72 134t104 50q31 0 50 -14.5t19 -38.5q0 -15 -9.5 -25t-23.5 -10t-24.5 8.5t-15.5 19t-14 19t-20 8.5q-20 0 -35.5 -32t-35.5 -115l-20 -84h89l-8 -25h-88l-76 -318q-39 -160 -104 -225q-50 -50 -104 -50q-33 0 -52.5 14t-19.5 37q0 16 10 26.5
t25 10.5q19 0 38.5 -27.5t36.5 -27.5q43 0 69 111l107 449h-98l7 25h98z" />
    <glyph glyph-name="g" unicode="g" horiz-adv-x="438" 
d="M61 70q0 51 86 92q-60 31 -60 96q0 72 59.5 129t135.5 57q44 0 74 -24q41 27 75 27q20 0 28 -8.5t8 -30.5q0 -32 -19 -32q-10 0 -25.5 15.5t-24.5 15.5q-14 0 -21 -7q31 -38 31 -85q0 -66 -55 -115.5t-128 -49.5q-13 0 -35 3q-75 -30 -75 -57q0 -15 24.5 -25t59.5 -18
t70 -19t59.5 -35.5t24.5 -60.5q0 -59 -56 -92.5t-154 -33.5q-77 0 -125 23.5t-48 60.5q0 28 28 56.5t95 63.5q-32 21 -32 54zM160 250q0 -32 19 -52t50 -20q50 0 79.5 48.5t29.5 116.5q0 32 -19.5 52.5t-49.5 20.5q-38 0 -64 -31.5t-35.5 -67t-9.5 -67.5zM28 -91
q0 -31 35 -50t93 -19q64 0 101.5 19.5t37.5 52.5q0 28 -27.5 44.5t-83.5 30t-68 17.5q-49 -29 -68.5 -50t-19.5 -45z" />
    <glyph glyph-name="h" unicode="h" horiz-adv-x="510" 
d="M35 0l184 599q6 24 6 31q0 17 -16 22t-73 4l7 26q120 -3 160 12h14l-152 -496l2 -2q58 98 117 163q76 85 137 85q28 0 44.5 -15.5t16.5 -42.5q0 -26 -17 -77l-80 -233q-11 -33 9 -33q14 0 40 27t45 61h31q-35 -64 -77.5 -103t-77.5 -39q-20 0 -33 14t-13 36q0 19 15 66
l81 241q10 30 10 39t-7 15.5t-16 6.5q-28 0 -71 -43q-64 -64 -133 -172t-83 -192h-70z" />
    <glyph glyph-name="i" unicode="i" horiz-adv-x="281" 
d="M71 309h-29q29 59 71 97t79 38q22 0 36.5 -15t14.5 -38q0 -26 -16 -74l-86 -247q-6 -20 -2.5 -28.5t12.5 -8.5q17 0 46.5 30.5t48.5 67.5h31q-27 -59 -72 -100.5t-82 -41.5q-23 0 -37 15t-14 41q0 24 9 53l85 246q20 57 -3 57q-18 0 -44.5 -26.5t-47.5 -65.5zM228 645
q0 20 14.5 34.5t34.5 14.5t34.5 -14.5t14.5 -34.5t-14.5 -34.5t-34.5 -14.5t-34.5 14.5t-14.5 34.5z" />
    <glyph glyph-name="j" unicode="j" horiz-adv-x="260" 
d="M85 311h-33q39 68 72 100.5t70 32.5q23 0 37.5 -14t14.5 -37q0 -22 -9 -52l-90 -322q-57 -207 -184 -207q-32 0 -54 15.5t-22 37.5q0 15 11 25.5t27 10.5t26.5 -8.5t14.5 -19.5t11.5 -19.5t19.5 -8.5q17 0 31.5 26t31.5 88l112 398q11 43 -9 43q-13 0 -35 -25t-43 -64z
M217 645q0 20 14.5 34.5t34.5 14.5t34.5 -14.5t14.5 -34.5t-14.5 -34.5t-34.5 -14.5t-34.5 14.5t-14.5 34.5z" />
    <glyph glyph-name="k" unicode="k" horiz-adv-x="500" 
d="M35 0l182 596q8 22 8 34q0 17 -18.5 22.5t-70.5 3.5l9 26q108 -1 159 12h13l-112 -366l2 -2q53 64 94 91t87 27q44 0 72.5 -25t28.5 -65q0 -48 -45 -86t-127 -59q18 -49 25 -67l20 -52q18 -47 37 -47q12 0 33 25.5t39 60.5h29q-28 -60 -65 -100t-66 -40q-38 0 -68 74
l-56 134q-56 -7 -81 -6l-59 -191h-70zM247 338q-53 -53 -75 -120q126 4 185.5 41.5t59.5 86.5q0 22 -16 36.5t-41 14.5q-54 0 -113 -59z" />
    <glyph glyph-name="l" unicode="l" horiz-adv-x="260" 
d="M323 694l-192 -628q-9 -31 13 -31q14 0 42 28t50 64h33q-32 -59 -78.5 -98.5t-83.5 -39.5q-20 0 -34.5 14.5t-14.5 35.5q0 23 17 77l142 463q12 38 12 51q0 17 -15.5 22t-73.5 4l7 26q123 -3 162 12h14z" />
    <glyph glyph-name="m" unicode="m" horiz-adv-x="771" 
d="M55 0l106 346q18 58 -2 58q-34 0 -80 -85h-29q64 125 144 125q20 0 33 -11.5t13 -29.5q0 -28 -15 -73l-65 -188l2 -2q100 177 161.5 240.5t113.5 63.5q23 0 37.5 -13.5t14.5 -35.5t-15 -65l-60 -177l2 -2q95 165 155.5 229t111.5 64q24 0 39.5 -16t15.5 -40
q0 -30 -16 -77l-79 -222q-16 -46 5 -46q12 0 34.5 24.5t45.5 63.5h31q-36 -66 -76 -104t-73 -38q-20 0 -33.5 15t-13.5 37q0 18 14 60l81 229q13 38 13 56q0 22 -19 22q-22 0 -60 -38q-54 -54 -123.5 -169t-95.5 -201h-70l106 346q11 38 11 47q0 6 -5 10.5t-12 4.5
q-21 0 -58 -37q-53 -53 -124 -169.5t-96 -201.5h-70z" />
    <glyph glyph-name="n" unicode="n" 
d="M54 0l111 363q13 42 -5 42q-15 0 -36 -22.5t-42 -61.5h-28q27 57 64.5 90t75.5 33q20 0 33.5 -12.5t13.5 -32.5q0 -22 -12 -62l-44 -138l2 -2q81 131 141 189t113 58q29 0 46 -15t17 -40q0 -26 -22 -90l-74 -212q-16 -44 8 -44q28 0 83 87h32q-37 -59 -78 -100t-75 -41
q-21 0 -35.5 14.5t-14.5 36.5q0 17 13 56l85 246q9 27 9 43q0 10 -6.5 16.5t-16.5 6.5q-27 0 -69 -42q-59 -59 -120 -152t-80 -153l-19 -61h-70z" />
    <glyph glyph-name="o" unicode="o" horiz-adv-x="448" 
d="M44 125q0 76 39.5 150.5t102.5 121.5t126 47q55 0 91.5 -40t36.5 -100q0 -67 -37 -140t-100.5 -124t-130.5 -51q-57 0 -92.5 38t-35.5 98zM124 125q0 -47 20.5 -75t56.5 -28q39 0 69 30q41 41 65.5 115.5t24.5 132.5q0 50 -21 80.5t-55 30.5q-35 0 -70 -35
q-43 -43 -66.5 -113t-23.5 -138z" />
    <glyph glyph-name="p" unicode="p" horiz-adv-x="500" 
d="M151 -12l-18 -67q-9 -33 -9 -44q0 -20 17 -29.5t61 -10.5l-8 -25h-231l8 25q39 1 58 17.5t30 54.5l126 459q-55 -20 -126 -94h-33q36 46 82 83t88 54l30 110h70l-22 -83q11 3 29 5q8 1 24 1q73 0 117.5 -43.5t44.5 -114.5q0 -109 -93 -202q-47 -47 -106 -68t-139 -28z
M260 388l-100 -367q113 3 177 67q79 79 79 174q0 59 -33.5 93.5t-89.5 34.5q-19 0 -33 -2z" />
    <glyph glyph-name="q" unicode="q" horiz-adv-x="458" 
d="M406 404l11 22q6 14 16 14t15.5 -4.5t5.5 -8.5l-11 -44l-124 -447q-12 -43 -12 -61q0 -38 64 -38l-8 -25h-222l8 25q38 1 58 16.5t30 47.5l61 203l-2 2q-64 -117 -146 -117q-47 0 -77.5 33t-30.5 83q0 67 40 146.5t105.5 136t129.5 56.5q52 0 89 -40zM188 51q32 0 62 30
q44 44 76 141.5t32 134.5q0 24 -15.5 39t-41.5 15q-41 0 -80 -39q-50 -50 -78.5 -117.5t-28.5 -119.5q0 -36 21 -60t53 -24z" />
    <glyph glyph-name="r" unicode="r" horiz-adv-x="365" 
d="M85 0l77 321q9 41 9 54q0 10 -5.5 16.5t-13.5 6.5q-35 0 -79 -84h-28q31 61 67.5 95.5t70.5 34.5q22 0 36 -16t14 -42q0 -52 -29 -147l2 -2q52 114 89.5 160.5t71.5 46.5q43 0 43 -59q0 -31 -10.5 -50.5t-27.5 -19.5t-22.5 11.5t-3 26t1 26t-11.5 11.5q-8 0 -21 -13
q-39 -39 -79 -123t-57 -154l-24 -100h-70z" />
    <glyph glyph-name="s" unicode="s" horiz-adv-x="344" 
d="M111 329q0 47 40 81t96 34q40 0 65.5 -18t25.5 -46q0 -15 -10.5 -26t-23.5 -11q-16 0 -26 10.5t-14.5 23.5t-15 23.5t-27.5 10.5q-24 0 -41.5 -15t-17.5 -35q0 -24 19 -54.5t42.5 -56t42.5 -61t19 -69.5q0 -56 -41.5 -93.5t-103.5 -37.5q-45 0 -77 23t-32 55
q0 15 10.5 25.5t25.5 10.5q16 0 27 -12.5t17 -28t20 -28t34 -12.5q27 0 46 19t19 45q0 24 -18.5 55t-41 56.5t-41 61.5t-18.5 70z" />
    <glyph glyph-name="t" unicode="t" horiz-adv-x="302" 
d="M241 405l-89 -326q-14 -50 13 -50q40 0 105 86h32q-85 -126 -171 -126q-25 0 -41 14.5t-16 36.5q0 14 5 32l92 333h-82l8 25q60 9 92.5 29.5t65.5 71.5h25l-31 -101h86l-8 -25h-86z" />
    <glyph glyph-name="u" unicode="u" 
d="M445 436h70l-111 -368q-12 -38 8 -38q14 0 38.5 26.5t39.5 57.5h27q-28 -58 -66 -91.5t-75 -33.5q-21 0 -33.5 12t-12.5 33q0 25 15 73l39 124l-2 2q-79 -126 -139 -185t-118 -59q-26 0 -42 15.5t-16 41.5q0 28 19 85l79 232q11 32 -11 32q-23 0 -81 -89h-30
q84 138 152 138q20 0 33 -13.5t13 -32.5q0 -20 -16 -66l-82 -243q-9 -27 -9 -40q0 -9 7 -15.5t17 -6.5q32 0 97 65q51 51 109.5 148.5t80.5 195.5z" />
    <glyph glyph-name="v" unicode="v" horiz-adv-x="510" 
d="M320 440l-78 -164q-53 -112 -53 -157q0 -33 24 -56t59 -23q52 0 99 47q34 34 62 96t28 104q0 30 -22 60.5t-22 52.5q0 19 11 31.5t27 12.5q23 0 36 -24t13 -65q0 -50 -19 -112t-51.5 -119.5t-85 -96t-111.5 -38.5q-54 0 -91 33.5t-37 84.5q0 33 17 63.5t59.5 89
t74.5 114.5q-6 -1 -23 -1q-8 0 -54.5 3t-59.5 3q-21 0 -33 -10.5t-12 -27.5q0 -9 19.5 -19.5t19.5 -30.5q0 -16 -10.5 -28t-24.5 -12q-16 0 -26 14t-10 37q0 49 34.5 92.5t97.5 43.5h108q10 0 34 2z" />
    <glyph glyph-name="w" unicode="w" horiz-adv-x="698" 
d="M237 370l-95 3q-26 1 -40.5 -8.5t-14.5 -26.5q0 -9 19.5 -24t19.5 -35q0 -13 -10 -22.5t-24 -9.5q-17 0 -28 12.5t-11 31.5q0 48 31.5 96.5t89.5 48.5q8 0 38.5 -1t48.5 -1t74 4q-104 -169 -136.5 -235.5t-32.5 -102.5q0 -28 17 -46.5t41 -18.5q38 0 76.5 40.5
t93.5 129.5q17 239 81 239q29 0 29 -37q0 -69 -89 -213q5 -66 28 -102.5t58 -36.5q55 0 97.5 79.5t42.5 140.5q0 28 -23.5 67t-23.5 63q0 17 9.5 28t24.5 11q26 0 40.5 -27t14.5 -77q0 -60 -27 -140t-79.5 -145.5t-111.5 -65.5q-39 0 -60.5 40.5t-15.5 118.5l-2 2
q-54 -85 -101 -123t-97 -38q-43 0 -70.5 25t-27.5 63q0 45 23 82t70.5 95.5t80.5 116.5q-16 -2 -28 -1z" />
    <glyph glyph-name="x" unicode="x" horiz-adv-x="490" 
d="M230 204l-58 159q-7 18 -12 24.5t-12 6.5q-10 0 -24.5 -21.5t-27.5 -54.5h-30q52 126 116 126q21 0 31 -10t22 -43l45 -122l38 54q50 72 75.5 96.5t49.5 24.5q21 0 34.5 -15.5t13.5 -38.5q0 -20 -9.5 -33t-23.5 -13q-18 0 -25.5 22t-15.5 22q-18 0 -57 -54l-69 -94
l53 -141q13 -35 19 -45t15 -10q12 0 29 22t32 61h28q-22 -59 -56.5 -98.5t-65.5 -39.5q-20 0 -35 16t-28 54l-40 115l-32 -45q-61 -86 -89 -113t-58 -27q-21 0 -33.5 14t-12.5 39q0 20 8.5 33.5t21.5 13.5q15 0 24.5 -20.5t19.5 -20.5q25 0 89 87z" />
    <glyph glyph-name="y" unicode="y" horiz-adv-x="500" 
d="M258 -24l-92 387q-7 31 -20 31q-30 0 -67 -98h-29q25 70 58.5 109t66.5 39q25 0 39 -18.5t25 -62.5l75 -323q58 70 91.5 142t33.5 128q0 22 -12.5 53.5t-12.5 42.5q0 17 10 27.5t26 10.5q22 0 37 -20t15 -50q0 -81 -66.5 -202t-170.5 -225q-135 -135 -249 -135
q-35 0 -57 13.5t-22 35.5q0 15 10.5 25t25.5 10q18 0 46 -19.5t48 -19.5q67 0 191 119z" />
    <glyph glyph-name="z" unicode="z" horiz-adv-x="490" 
d="M455 432q0 12 16 12q22 0 22 -21q0 -37 -64 -101q-37 -37 -166.5 -116.5t-161.5 -116.5l2 -2q31 8 59 8q49 0 109 -29q19 -11 40 -20.5t36 -9.5q16 0 26.5 9.5t10.5 23.5q0 10 -14 26.5t-14 30.5t10 23.5t23 9.5q17 0 28.5 -14t11.5 -34q0 -47 -39 -84.5t-89 -37.5
q-44 0 -118 35q-70 35 -92 35q-10 0 -18 -7.5t-8 -17.5q0 -2 2.5 -12t2.5 -13q0 -20 -19 -20q-22 0 -22 22q0 38 57 100q23 24 49 44q38 29 133 87q100 61 136 96q18 16 20 17l-2 2l-7 -3q-32 -11 -50 -11q-35 0 -91 29q-50 29 -82 29q-16 0 -27.5 -9t-11.5 -21q0 -5 15 -20
t15 -31q0 -14 -10 -24t-24 -10q-17 0 -28.5 12.5t-11.5 31.5q0 47 39.5 80.5t95.5 33.5q46 0 104.5 -29.5t80.5 -29.5q10 0 20 6.5t10 15.5q0 4 -2 13.5t-2 11.5z" />
    <glyph glyph-name="braceleft" unicode="{" horiz-adv-x="474" 
d="M188 230v22q53 7 84.5 39t31.5 71q0 24 -11 72q-11 57 -11 77q0 68 48 120t124 66v-18q-52 -12 -81 -41.5t-29 -70.5q0 -28 11 -79q10 -56 10 -78q0 -54 -36 -98t-102 -71q66 -27 102 -71t36 -98q0 -22 -10 -78q-11 -49 -11 -79q0 -41 29 -70.5t81 -41.5v-18
q-76 14 -124 66t-48 120q0 20 11 77q11 48 11 72q0 39 -31.5 71t-84.5 39z" />
    <glyph glyph-name="bar" unicode="|" horiz-adv-x="510" 
d="M281 750h43v-1000h-43v1000z" />
    <glyph glyph-name="braceright" unicode="}" horiz-adv-x="474" 
d="M386 252v-22q-53 -7 -84.5 -39t-31.5 -71q0 -15 11 -72q11 -48 11 -77q0 -68 -48 -120t-124 -66v18q52 12 81 41.5t29 70.5q0 25 -10 79q-11 51 -11 78q0 54 36 98t102 71q-66 27 -102 71t-36 98q0 27 11 78q10 56 10 79q0 41 -29 70.5t-81 41.5v18q76 -14 124 -66
t48 -120q0 -29 -11 -77q-11 -57 -11 -72q0 -39 31.5 -71t84.5 -39z" />
    <glyph glyph-name="asciitilde" unicode="~" horiz-adv-x="667" 
d="M609 339h28q-3 -73 -37 -111t-92 -38q-48 0 -150 44q-104 44 -137 44q-68 0 -84 -88h-28q1 74 35.5 111.5t93.5 37.5q40 0 145 -44q108 -46 144 -46q35 0 56.5 24t25.5 66z" />
    <glyph glyph-name="uni00A0" unicode="&#xa0;" horiz-adv-x="265" 
 />
    <glyph glyph-name="exclamdown" unicode="&#xa1;" horiz-adv-x="271" 
d="M158 234h28l-97 -437q-8 -37 -18.5 -47.5t-40.5 -10.5q-47 0 -47 29q0 14 13 47zM221 330q-23 0 -40 17t-17 40t17 40t40 17t40 -17t17 -40t-17 -40t-40 -17z" />
    <glyph glyph-name="cent" unicode="&#xa2;" horiz-adv-x="375" 
d="M69 -137l59 132q-39 13 -61 46t-22 79q0 67 43.5 144t107 128.5t116.5 51.5q10 0 17 -1l69 155h24l-72 -162q17 -7 28 -25t11 -38q0 -19 -11 -32.5t-28 -13.5q-15 0 -24 9t-9 25h-2l-137 -310q22 -8 32 -8q35 0 66.5 22.5t68.5 73.5h30q-46 -76 -99.5 -116.5
t-125.5 -32.5l-57 -127h-24zM158 62l154 341q-11 8 -21 8q-33 0 -70 -37q-49 -49 -74 -110.5t-25 -119.5q0 -55 36 -82z" />
    <glyph glyph-name="sterling" unicode="&#xa3;" horiz-adv-x="708" 
d="M214 149l63 229q86 316 283 316q54 0 88.5 -19.5t34.5 -48.5q0 -16 -10 -27.5t-24 -11.5q-19 0 -39.5 17.5t-45 34.5t-54.5 17t-54 -24q-27 -27 -49.5 -88t-53.5 -175l-61 -220h139l-8 -29h-139q-18 -67 -62 -154q41 14 74 14q47 0 90.5 -27t79 -53.5t62.5 -26.5
q20 0 34.5 11.5t14.5 27.5q0 15 -16 41.5t-16 43.5q0 19 10.5 31t26.5 12q22 0 37 -18.5t15 -47.5q0 -55 -44.5 -108.5t-108.5 -53.5q-35 0 -69 18.5t-57 40.5t-55 40.5t-64 18.5q-22 0 -34 -3q-22 -53 -48.5 -84t-49.5 -31q-16 0 -26.5 10.5t-10.5 26.5q0 27 24.5 55.5
t65.5 44.5l49 171h-130l8 29h130z" />
    <glyph glyph-name="currency" unicode="&#xa4;" horiz-adv-x="667" 
d="M334 540q79 0 135 -47l62 62l36 -37l-62 -62q47 -57 47 -134q0 -79 -47 -135l62 -62l-36 -36l-62 62q-60 -47 -135 -47q-80 0 -135 48l-63 -63l-36 36l63 63q-47 58 -47 134q0 82 47 133l-63 63l36 37l63 -63q57 48 135 48zM333 488q-69 0 -117.5 -48.5t-48.5 -117.5
t48.5 -118t117.5 -49t118 49t49 118t-49 117.5t-118 48.5z" />
    <glyph glyph-name="yen" unicode="&#xa5;" horiz-adv-x="740" 
d="M452 317l-34 -113h247l-8 -28h-245l-8 -26q-14 -53 -14 -71q0 -26 23 -41.5t71 -12.5l-6 -25h-292l6 25q47 0 75 24.5t42 77.5l15 49h-239l8 28h237l31 113h-236l8 28h219l-87 208q-30 71 -49.5 88t-61.5 16l6 25h273l-6 -25q-45 0 -62 -11t-17 -43q0 -30 23 -89l68 -171
h4l144 170q31 37 40.5 54.5t10.5 37.5q1 24 -18 38.5t-51 13.5l5 25h234l-6 -25q-26 -1 -50.5 -18t-61.5 -58l-213 -236h228l-8 -28h-245z" />
    <glyph glyph-name="brokenbar" unicode="&#xa6;" horiz-adv-x="510" 
d="M281 175h43v-350h-43v350zM281 675h43v-350h-43v350z" />
    <glyph glyph-name="section" unicode="&#xa7;" horiz-adv-x="406" 
d="M460 623q0 -21 -11.5 -34t-29.5 -13q-24 0 -53 36.5t-57 36.5q-30 0 -53.5 -34.5t-23.5 -78.5t19 -104.5t38 -130t19 -136.5q0 -156 -77 -254.5t-182 -98.5q-44 0 -77.5 22.5t-33.5 51.5q0 20 12 32.5t32 12.5q24 0 56 -37.5t57 -37.5q29 0 50.5 34t21.5 80t-34 158
q-35 111 -35 178q0 90 31.5 178.5t91 149t130.5 60.5q45 0 77 -21t32 -50zM265 155q0 68 -20.5 139.5t-38 133.5t-11.5 117h-2q-49 -122 -49 -220q0 -70 33 -190q32 -124 32 -141q0 -32 -12 -72l2 -2q66 96 66 235z" />
    <glyph glyph-name="dieresis" unicode="&#xa8;" horiz-adv-x="333" 
d="M120 585q0 20 14.5 34.5t34.5 14.5t34.5 -14.5t14.5 -34.5t-14.5 -34.5t-34.5 -14.5t-34.5 14.5t-14.5 34.5zM309 585q0 20 14.5 34.5t34.5 14.5t34.5 -14.5t14.5 -34.5t-14.5 -34.5t-34.5 -14.5t-34.5 14.5t-14.5 34.5z" />
    <glyph glyph-name="copyright" unicode="&#xa9;" horiz-adv-x="771" 
d="M614 559l10 -137h-19q-35 115 -148 115q-72 0 -114 -51.5t-42 -138.5q0 -101 44 -151.5t117 -50.5q96 0 152 80l19 -10q-68 -99 -188 -99q-96 0 -161 62.5t-65 154.5q0 96 70 161t173 65q35 0 69 -11t40 -11q15 0 24 22h19zM790 336q0 -143 -101.5 -244.5t-244.5 -101.5
t-244.5 101.5t-101.5 244.5t101.5 244.5t244.5 101.5t244.5 -101.5t101.5 -244.5zM760 336q0 131 -92.5 223.5t-223.5 92.5t-223.5 -92.5t-92.5 -223.5t92.5 -223.5t223.5 -92.5t223.5 92.5t92.5 223.5z" />
    <glyph glyph-name="ordfeminine" unicode="&#xaa;" horiz-adv-x="323" 
d="M404 692l-74 -218q-9 -25 9 -25q21 0 54 55h19q-19 -38 -44 -60.5t-48 -22.5q-14 0 -23 11t-9 29q0 22 10 49l-2 2q-52 -91 -122 -91q-28 0 -46 19t-18 48q0 67 64.5 136.5t127.5 69.5q41 0 61 -32q18 17 25 30h16zM199 456q31 0 59 28q31 31 53 76.5t22 75.5
q0 18 -12 29t-31 11q-36 0 -67 -31t-49.5 -70.5t-18.5 -68.5q0 -22 12.5 -36t31.5 -14z" />
    <glyph glyph-name="guillemotleft" unicode="&#xab;" horiz-adv-x="375" 
d="M276 257l47 -179h-24l-86 179l159 173h24zM151 257l68 -204h-20l-117 204l180 198h21z" />
    <glyph glyph-name="logicalnot" unicode="&#xac;" horiz-adv-x="667" 
d="M110 406h527v-281h-53v228h-474v53z" />
    <glyph glyph-name="uni00AD" unicode="&#xad;" horiz-adv-x="375" 
d="M70 261h300l-22 -70h-300z" />
    <glyph glyph-name="registered" unicode="&#xae;" horiz-adv-x="771" 
d="M297 190v295q0 26 -10 36t-35 10v18h188q66 0 106 -30t40 -80q0 -81 -109 -108l102 -146q16 -24 28.5 -32.5t30.5 -10.5v-16h-90l-144 198h-36v-139q0 -25 12.5 -34t44.5 -9v-16h-179v16q30 0 40.5 11t10.5 37zM368 345h14q59 0 92 23.5t33 65.5q0 40 -28 66.5t-71 26.5
q-16 0 -40 -7v-175zM790 336q0 -143 -101.5 -244.5t-244.5 -101.5t-244.5 101.5t-101.5 244.5t101.5 244.5t244.5 101.5t244.5 -101.5t101.5 -244.5zM760 336q0 131 -92.5 223.5t-223.5 92.5t-223.5 -92.5t-92.5 -223.5t92.5 -223.5t223.5 -92.5t223.5 92.5t92.5 223.5z" />
    <glyph glyph-name="macron" unicode="&#xaf;" horiz-adv-x="333" 
d="M131 617h337l-20 -65h-337z" />
    <glyph glyph-name="degree" unicode="&#xb0;" horiz-adv-x="371" 
d="M105 525q0 65 46 111t111 46t111 -46t46 -111t-46 -111t-111 -46t-111 46t-46 111zM154 525q0 -45 31.5 -76.5t76.5 -31.5t76.5 31.5t31.5 76.5t-31.5 76.5t-76.5 31.5t-76.5 -31.5t-31.5 -76.5z" />
    <glyph glyph-name="plusminus" unicode="&#xb1;" horiz-adv-x="667" 
d="M110 447h237v237h53v-237h237v-53h-237v-237h-53v237h-237v53zM110 53h527v-53h-527v53z" />
    <glyph glyph-name="two.superior" unicode="&#xb2;" horiz-adv-x="323" 
d="M167 380h91q32 0 43.5 9.5t19.5 37.5h31l-25 -92h-227l5 18q15 21 83.5 78.5t108.5 97.5q31 31 31 62q0 25 -17.5 40t-46.5 15q-42 0 -92 -43l-21 16q57 63 133 63q44 0 73.5 -21.5t29.5 -54.5q0 -39 -37 -76q-30 -30 -93.5 -78.5t-89.5 -71.5z" />
    <glyph glyph-name="three.superior" unicode="&#xb3;" horiz-adv-x="323" 
d="M170 504l6 22q87 -3 125 35q19 19 19 44q0 18 -14.5 31t-35.5 13q-38 0 -80 -42l-20 16q49 59 114 59q39 0 65.5 -20t26.5 -50q0 -29 -24 -54.5t-74 -40.5q56 -32 56 -78q0 -50 -44 -80t-118 -30q-82 0 -82 26q0 8 8 15t16 7q4 0 31.5 -12t50.5 -12q35 0 57 20.5t22 53.5
t-23 56q-21 21 -82 21z" />
    <glyph glyph-name="acute" unicode="&#xb4;" horiz-adv-x="333" 
d="M243 511h-31l37 121q5 15 14.5 20.5t32.5 5.5h33q22 0 22 -15q0 -8 -9 -17z" />
    <glyph glyph-name="mu" unicode="&#xb5;" horiz-adv-x="500" 
d="M247 436l-118 -347q-9 -28 -9 -40q0 -9 7 -15.5t17 -6.5q17 0 35 11.5t54 47.5q63 63 112.5 147t72.5 158l14 45h70l-110 -365q-12 -41 6 -41q13 0 36 24t42 60h28q-29 -58 -66.5 -91.5t-74.5 -33.5q-22 0 -34.5 12t-12.5 33q0 22 16 73l38 124l-2 2q-149 -244 -256 -244
q-30 0 -46 19q-9 -26 -20 -110t-29 -102q-14 -14 -30 -14q-15 0 -26 10t-11 24q0 16 9 35t25.5 45.5t24.5 44.5q13 28 25 64.5t23 73.5t14 46l106 311h70z" />
    <glyph glyph-name="paragraph" unicode="&#xb6;" horiz-adv-x="438" 
d="M395 657h-90v-852h-29v523q-109 -2 -168.5 41.5t-59.5 128.5q0 79 54.5 131.5t159.5 52.5h228v-18q-44 -2 -55 -16.5t-11 -68.5v-774h-29v852z" />
    <glyph glyph-name="periodcentered" unicode="&#xb7;" horiz-adv-x="271" 
d="M201 398q23 0 40 -17t17 -40t-17 -40t-40 -17t-40 17t-17 40t17 40t40 17z" />
    <glyph glyph-name="cedilla" unicode="&#xb8;" horiz-adv-x="333" 
d="M100 -63l45 63h25l-18 -32q47 -17 47 -63q0 -36 -34 -57t-101 -21h-26l8 26q91 -2 91 45q0 27 -37 39z" />
    <glyph glyph-name="one.superior" unicode="&#xb9;" horiz-adv-x="323" 
d="M335 685l-83 -268q-8 -24 -8 -37q0 -26 44 -23l-6 -22h-164l6 22q33 0 46 10t25 50l50 163q3 10 3 17q0 11 -11 14.5t-44 2.5l5 21q26 3 47 11.5t31 15.5t28 23h31z" />
    <glyph glyph-name="ordmasculine" unicode="&#xba;" horiz-adv-x="292" 
d="M114 503q0 70 55.5 130.5t119.5 60.5q36 0 59.5 -24t23.5 -60q0 -61 -53 -125t-121 -64q-37 0 -60.5 22.5t-23.5 59.5zM166 503q0 -28 13.5 -45t36.5 -17q27 0 48 21q26 26 40.5 68.5t14.5 77.5q0 30 -13.5 48t-35.5 18q-24 0 -50 -26t-40 -66.5t-14 -78.5z" />
    <glyph glyph-name="guillemotright" unicode="&#xbb;" horiz-adv-x="375" 
d="M156 251l-47 179h23l87 -179l-159 -173h-24zM281 251l-67 204h20l116 -204l-180 -198h-21z" />
    <glyph glyph-name="onequarter" unicode="&#xbc;" horiz-adv-x="792" 
d="M640 99l-29 -105h-56l28 105h-152v37l239 210h46l-67 -210h69l-10 -37h-68zM593 136l47 147l-2 2l-168 -149h123zM290 685l-83 -268q-8 -24 -8 -37q0 -26 44 -23l-6 -22h-164l6 22q33 0 46 10t25 50l50 163q3 10 3 17q0 11 -11 14.5t-44 2.5l5 21q26 3 47 11.5t31 15.5
t28 23h31zM39 -42l651 736h44l-646 -736h-49z" />
    <glyph glyph-name="onehalf" unicode="&#xbd;" horiz-adv-x="792" 
d="M39 -42l651 736h44l-646 -736h-49zM516 45h91q32 0 43.5 9.5t19.5 37.5h31l-25 -92h-227l5 18q15 21 83.5 78.5t108.5 97.5q31 31 31 62q0 25 -17.5 40t-46.5 15q-42 0 -92 -43l-21 16q57 63 133 63q44 0 73.5 -21.5t29.5 -54.5q0 -39 -37 -76q-30 -30 -93.5 -78.5
t-89.5 -71.5zM290 685l-83 -268q-8 -24 -8 -37q0 -26 44 -23l-6 -22h-164l6 22q33 0 46 10t25 50l50 163q3 10 3 17q0 11 -11 14.5t-44 2.5l5 21q26 3 47 11.5t31 15.5t28 23h31z" />
    <glyph glyph-name="threequarters" unicode="&#xbe;" horiz-adv-x="792" 
d="M660 99l-29 -105h-56l28 105h-152v37l239 210h46l-67 -210h69l-10 -37h-68zM613 136l47 147l-2 2l-168 -149h123zM134 504l6 22q87 -3 125 35q19 19 19 44q0 18 -14.5 31t-35.5 13q-38 0 -80 -42l-20 16q49 59 114 59q39 0 65.5 -20t26.5 -50q0 -29 -24 -54.5t-74 -40.5
q56 -32 56 -78q0 -50 -44 -80t-118 -30q-82 0 -82 26q0 8 8 15t16 7q4 0 31.5 -12t50.5 -12q35 0 57 20.5t22 53.5t-23 56q-21 21 -82 21zM59 -42l651 736h44l-646 -736h-49z" />
    <glyph glyph-name="questiondown" unicode="&#xbf;" horiz-adv-x="417" 
d="M288 249h27q-5 -27 -10 -61.5t-7.5 -51.5t-7.5 -33t-12 -23q-8 -8 -36 -9.5t-63 -9.5t-59 -32q-38 -38 -38 -102q0 -49 25 -78t68 -29q7 0 32 2.5t29 2.5q14 0 24 -10t10 -25q0 -21 -18 -36t-43 -15q-58 0 -111.5 66.5t-53.5 162.5q0 87 49 136q25 25 58 34.5t62.5 15.5
t43.5 20q24 24 31 75zM327 330q-23 0 -40 17t-17 40t17 40t40 17t40 -17t17 -40t-17 -40t-40 -17z" />
    <glyph glyph-name="Agrave" unicode="&#xc0;" horiz-adv-x="677" 
d="M631 694l-54 -544q-3 -26 -3 -54q0 -41 18.5 -56.5t67.5 -14.5l-7 -25h-281l7 25q68 0 86.5 22t26.5 103l12 127h-249l-79 -96q-59 -73 -59 -102q0 -52 76 -54l-7 -25h-235l7 25q30 9 54 29.5t76 82.5l470 557h73zM508 311l32 312l-2 2l-256 -314h226zM622 730l-99 115
q-9 9 -9 17q0 15 22 15h33q23 0 32.5 -5.5t14.5 -20.5l37 -121h-31z" />
    <glyph glyph-name="Aacute" unicode="&#xc1;" horiz-adv-x="677" 
d="M631 694l-54 -544q-3 -26 -3 -54q0 -41 18.5 -56.5t67.5 -14.5l-7 -25h-281l7 25q68 0 86.5 22t26.5 103l12 127h-249l-79 -96q-59 -73 -59 -102q0 -52 76 -54l-7 -25h-235l7 25q30 9 54 29.5t76 82.5l470 557h73zM508 311l32 312l-2 2l-256 -314h226zM592 730h-31
l37 121q5 15 14.5 20.5t32.5 5.5h33q22 0 22 -15q0 -8 -9 -17z" />
    <glyph glyph-name="Acircumflex" unicode="&#xc2;" horiz-adv-x="677" 
d="M631 694l-54 -544q-3 -26 -3 -54q0 -41 18.5 -56.5t67.5 -14.5l-7 -25h-281l7 25q68 0 86.5 22t26.5 103l12 127h-249l-79 -96q-59 -73 -59 -102q0 -52 76 -54l-7 -25h-235l7 25q30 9 54 29.5t76 82.5l470 557h73zM508 311l32 312l-2 2l-256 -314h226zM614 822l-127 -98
h-37l141 158h86l35 -158h-32z" />
    <glyph glyph-name="Atilde" unicode="&#xc3;" horiz-adv-x="677" 
d="M631 694l-54 -544q-3 -26 -3 -54q0 -41 18.5 -56.5t67.5 -14.5l-7 -25h-281l7 25q68 0 86.5 22t26.5 103l12 127h-249l-79 -96q-59 -73 -59 -102q0 -52 76 -54l-7 -25h-235l7 25q30 9 54 29.5t76 82.5l470 557h73zM508 311l32 312l-2 2l-256 -314h226zM481 745l-27 12
q10 49 35 79.5t56 30.5q28 0 85 -31q37 -20 53 -20q36 0 59 51l28 -14q-28 -109 -94 -109q-31 0 -78 27q-40 23 -60 23q-17 0 -30 -11t-27 -38z" />
    <glyph glyph-name="Adieresis" unicode="&#xc4;" horiz-adv-x="677" 
d="M631 694l-54 -544q-3 -26 -3 -54q0 -41 18.5 -56.5t67.5 -14.5l-7 -25h-281l7 25q68 0 86.5 22t26.5 103l12 127h-249l-79 -96q-59 -73 -59 -102q0 -52 76 -54l-7 -25h-235l7 25q30 9 54 29.5t76 82.5l470 557h73zM508 311l32 312l-2 2l-256 -314h226zM469 804
q0 20 14.5 34.5t34.5 14.5t34.5 -14.5t14.5 -34.5t-14.5 -34.5t-34.5 -14.5t-34.5 14.5t-14.5 34.5zM658 804q0 20 14.5 34.5t34.5 14.5t34.5 -14.5t14.5 -34.5t-14.5 -34.5t-34.5 -14.5t-34.5 14.5t-14.5 34.5z" />
    <glyph glyph-name="Aring" unicode="&#xc5;" horiz-adv-x="677" 
d="M631 694l-54 -544q-3 -26 -3 -54q0 -41 18.5 -56.5t67.5 -14.5l-7 -25h-281l7 25q68 0 86.5 22t26.5 103l12 127h-249l-79 -96q-59 -73 -59 -102q0 -52 76 -54l-7 -25h-235l7 25q30 9 54 29.5t76 82.5l470 557h73zM508 311l32 312l-2 2l-256 -314h226zM618 891
q35 0 60 -25t25 -60t-25 -60.5t-60 -25.5t-60.5 25.5t-25.5 60.5t25.5 60t60.5 25zM616 862q-23 0 -39.5 -16.5t-16.5 -39.5t16.5 -40t39.5 -17t40 17t17 40t-17 39.5t-40 16.5z" />
    <glyph glyph-name="AE" unicode="&#xc6;" horiz-adv-x="917" 
d="M484 345h-203l-134 -177q-40 -53 -40 -84q0 -26 18.5 -42.5t52.5 -16.5l-6 -25h-237l6 25q33 3 60 22t79 86l325 418q31 41 31 59q0 21 -18 34.5t-53 12.5l6 25h607l-41 -154h-26q5 20 5 31q0 98 -90 98h-169l-77 -287h120q59 0 90 23.5t53 74.5h24l-64 -239h-24
q5 48 -15 82t-59 34h-132l-58 -217q-10 -38 -10 -48q0 -55 101 -55h62q59 0 118 40.5t97 101.5h24l-74 -167h-535l6 25q60 0 84.5 27.5t42.5 96.5zM491 370l62 230q4 15 4 29q0 25 -21 25q-11 0 -21 -9.5t-37 -44.5l-175 -230h188z" />
    <glyph glyph-name="Ccedilla" unicode="&#xc7;" horiz-adv-x="750" 
d="M310 -63l41 55q-112 18 -182 93t-70 179q0 76 34.5 153.5t92 138.5t139 99.5t168.5 38.5q112 0 248 -68l-35 -153h-25q7 68 -27 118q-10 15 -26 29.5t-53 30t-82 15.5q-111 0 -193 -82q-66 -66 -102 -157.5t-36 -164.5q0 -107 62 -176.5t159 -69.5q163 0 255 226h21
l-40 -170q-123 -84 -251 -84h-33l-13 -20q47 -17 47 -63q0 -36 -34 -57t-101 -21h-26l8 26q91 -2 91 45q0 27 -37 39z" />
    <glyph glyph-name="Egrave" unicode="&#xc8;" horiz-adv-x="646" 
d="M279 345l-59 -219q-9 -32 -9 -48q0 -23 24.5 -38t77.5 -15h75q127 0 225 142h25l-74 -167h-554l7 25q49 0 76 27t41 81l106 403q15 57 15 68q1 26 -20 40t-60 13l7 25h527l-41 -154h-25q4 15 4 31q0 47 -22.5 72.5t-65.5 25.5h-196l-77 -287h141q60 0 94 24t53 74h25
l-64 -239h-25q5 48 -15 82t-76 34h-140zM505 730l-99 115q-9 9 -9 17q0 15 22 15h33q23 0 32.5 -5.5t14.5 -20.5l37 -121h-31z" />
    <glyph glyph-name="Eacute" unicode="&#xc9;" horiz-adv-x="646" 
d="M279 345l-59 -219q-9 -32 -9 -48q0 -23 24.5 -38t77.5 -15h75q127 0 225 142h25l-74 -167h-554l7 25q49 0 76 27t41 81l106 403q15 57 15 68q1 26 -20 40t-60 13l7 25h527l-41 -154h-25q4 15 4 31q0 47 -22.5 72.5t-65.5 25.5h-196l-77 -287h141q60 0 94 24t53 74h25
l-64 -239h-25q5 48 -15 82t-76 34h-140zM475 730h-31l37 121q5 15 14.5 20.5t32.5 5.5h33q22 0 22 -15q0 -8 -9 -17z" />
    <glyph glyph-name="Ecircumflex" unicode="&#xca;" horiz-adv-x="646" 
d="M279 345l-59 -219q-9 -32 -9 -48q0 -23 24.5 -38t77.5 -15h75q127 0 225 142h25l-74 -167h-554l7 25q49 0 76 27t41 81l106 403q15 57 15 68q1 26 -20 40t-60 13l7 25h527l-41 -154h-25q4 15 4 31q0 47 -22.5 72.5t-65.5 25.5h-196l-77 -287h141q60 0 94 24t53 74h25
l-64 -239h-25q5 48 -15 82t-76 34h-140zM497 822l-127 -98h-37l141 158h86l35 -158h-32z" />
    <glyph glyph-name="Edieresis" unicode="&#xcb;" horiz-adv-x="646" 
d="M279 345l-59 -219q-9 -32 -9 -48q0 -23 24.5 -38t77.5 -15h75q127 0 225 142h25l-74 -167h-554l7 25q49 0 76 27t41 81l106 403q15 57 15 68q1 26 -20 40t-60 13l7 25h527l-41 -154h-25q4 15 4 31q0 47 -22.5 72.5t-65.5 25.5h-196l-77 -287h141q60 0 94 24t53 74h25
l-64 -239h-25q5 48 -15 82t-76 34h-140zM352 804q0 20 14.5 34.5t34.5 14.5t34.5 -14.5t14.5 -34.5t-14.5 -34.5t-34.5 -14.5t-34.5 14.5t-14.5 34.5zM541 804q0 20 14.5 34.5t34.5 14.5t34.5 -14.5t14.5 -34.5t-14.5 -34.5t-34.5 -14.5t-34.5 14.5t-14.5 34.5z" />
    <glyph glyph-name="Igrave" unicode="&#xcc;" horiz-adv-x="354" 
d="M180 682h280l-8 -25q-51 1 -79.5 -25t-43.5 -84l-105 -398q-15 -58 -15 -70q0 -50 75 -55l-7 -25h-272l7 25q46 -1 75 27t45 87l104 394q15 57 15 70q0 25 -20.5 40t-58.5 14zM359 730l-99 115q-9 9 -9 17q0 15 22 15h33q23 0 32.5 -5.5t14.5 -20.5l37 -121h-31z" />
    <glyph glyph-name="Iacute" unicode="&#xcd;" horiz-adv-x="354" 
d="M180 682h280l-8 -25q-51 1 -79.5 -25t-43.5 -84l-105 -398q-15 -58 -15 -70q0 -50 75 -55l-7 -25h-272l7 25q46 -1 75 27t45 87l104 394q15 57 15 70q0 25 -20.5 40t-58.5 14zM329 730h-31l37 121q5 15 14.5 20.5t32.5 5.5h33q22 0 22 -15q0 -8 -9 -17z" />
    <glyph glyph-name="Icircumflex" unicode="&#xce;" horiz-adv-x="354" 
d="M180 682h280l-8 -25q-51 1 -79.5 -25t-43.5 -84l-105 -398q-15 -58 -15 -70q0 -50 75 -55l-7 -25h-272l7 25q46 -1 75 27t45 87l104 394q15 57 15 70q0 25 -20.5 40t-58.5 14zM351 822l-127 -98h-37l141 158h86l35 -158h-32z" />
    <glyph glyph-name="Idieresis" unicode="&#xcf;" horiz-adv-x="354" 
d="M180 682h280l-8 -25q-51 1 -79.5 -25t-43.5 -84l-105 -398q-15 -58 -15 -70q0 -50 75 -55l-7 -25h-272l7 25q46 -1 75 27t45 87l104 394q15 57 15 70q0 25 -20.5 40t-58.5 14zM206 804q0 20 14.5 34.5t34.5 14.5t34.5 -14.5t14.5 -34.5t-14.5 -34.5t-34.5 -14.5
t-34.5 14.5t-14.5 34.5zM395 804q0 20 14.5 34.5t34.5 14.5t34.5 -14.5t14.5 -34.5t-14.5 -34.5t-34.5 -14.5t-34.5 14.5t-14.5 34.5z" />
    <glyph glyph-name="Eth" unicode="&#xd0;" horiz-adv-x="771" 
d="M182 682h290q133 0 211.5 -89.5t78.5 -210.5q0 -43 -11.5 -91t-40.5 -100.5t-71.5 -94.5t-111 -69t-153.5 -27h-353l7 25q45 5 67 30t41 95l47 179h-80l7 25h80l49 185q13 50 13 67q0 24 -20 39t-57 14zM360 657l-81 -303h202l-7 -25h-202l-46 -174q-16 -58 -16 -71
q0 -56 135 -56t214 79q100 100 100 279q0 123 -63 197t-180 74h-56z" />
    <glyph glyph-name="Ntilde" unicode="&#xd1;" horiz-adv-x="792" 
d="M153 682h145q18 -25 41 -64l281 -490l102 381q14 51 14 73q0 37 -23.5 56.5t-63.5 18.5l6 25h229l-6 -25q-50 0 -76.5 -32t-51.5 -124l-109 -407q6 -16 27.5 -49.5t27.5 -44.5h-98q-24 32 -74 121l-248 442l-107 -399q-13 -47 -13 -65q0 -35 25 -54.5t74 -19.5l-6 -25
h-239l6 25q47 2 73 26.5t40 79.5l124 465q-22 38 -43 49.5t-64 11.5zM437 745l-27 12q10 49 35 79.5t56 30.5q28 0 85 -31q37 -20 53 -20q36 0 59 51l28 -14q-28 -109 -94 -109q-31 0 -78 27q-40 23 -60 23q-17 0 -30 -11t-27 -38z" />
    <glyph glyph-name="Ograve" unicode="&#xd2;" horiz-adv-x="792" 
d="M102 268q0 81 38.5 161t98 137t133.5 92.5t144 35.5q118 0 197 -84t79 -208q0 -97 -55 -192.5t-153.5 -158.5t-210.5 -63q-115 0 -193 80.5t-78 199.5zM200 238q0 -96 51 -159t137 -63q45 0 91.5 20.5t80.5 54.5q57 57 95.5 159t38.5 184q0 105 -52.5 168.5t-138.5 63.5
q-89 0 -161 -72t-107 -172t-35 -184zM578 730l-99 115q-9 9 -9 17q0 15 22 15h33q23 0 32.5 -5.5t14.5 -20.5l37 -121h-31z" />
    <glyph glyph-name="Oacute" unicode="&#xd3;" horiz-adv-x="792" 
d="M102 268q0 81 38.5 161t98 137t133.5 92.5t144 35.5q118 0 197 -84t79 -208q0 -97 -55 -192.5t-153.5 -158.5t-210.5 -63q-115 0 -193 80.5t-78 199.5zM200 238q0 -96 51 -159t137 -63q45 0 91.5 20.5t80.5 54.5q57 57 95.5 159t38.5 184q0 105 -52.5 168.5t-138.5 63.5
q-89 0 -161 -72t-107 -172t-35 -184zM548 730h-31l37 121q5 15 14.5 20.5t32.5 5.5h33q22 0 22 -15q0 -8 -9 -17z" />
    <glyph glyph-name="Ocircumflex" unicode="&#xd4;" horiz-adv-x="792" 
d="M102 268q0 81 38.5 161t98 137t133.5 92.5t144 35.5q118 0 197 -84t79 -208q0 -97 -55 -192.5t-153.5 -158.5t-210.5 -63q-115 0 -193 80.5t-78 199.5zM200 238q0 -96 51 -159t137 -63q45 0 91.5 20.5t80.5 54.5q57 57 95.5 159t38.5 184q0 105 -52.5 168.5t-138.5 63.5
q-89 0 -161 -72t-107 -172t-35 -184zM570 822l-127 -98h-37l141 158h86l35 -158h-32z" />
    <glyph glyph-name="Otilde" unicode="&#xd5;" horiz-adv-x="792" 
d="M102 268q0 81 38.5 161t98 137t133.5 92.5t144 35.5q118 0 197 -84t79 -208q0 -97 -55 -192.5t-153.5 -158.5t-210.5 -63q-115 0 -193 80.5t-78 199.5zM200 238q0 -96 51 -159t137 -63q45 0 91.5 20.5t80.5 54.5q57 57 95.5 159t38.5 184q0 105 -52.5 168.5t-138.5 63.5
q-89 0 -161 -72t-107 -172t-35 -184zM437 745l-27 12q10 49 35 79.5t56 30.5q28 0 85 -31q37 -20 53 -20q36 0 59 51l28 -14q-28 -109 -94 -109q-31 0 -78 27q-40 23 -60 23q-17 0 -30 -11t-27 -38z" />
    <glyph glyph-name="Odieresis" unicode="&#xd6;" horiz-adv-x="792" 
d="M102 268q0 81 38.5 161t98 137t133.5 92.5t144 35.5q118 0 197 -84t79 -208q0 -97 -55 -192.5t-153.5 -158.5t-210.5 -63q-115 0 -193 80.5t-78 199.5zM200 238q0 -96 51 -159t137 -63q45 0 91.5 20.5t80.5 54.5q57 57 95.5 159t38.5 184q0 105 -52.5 168.5t-138.5 63.5
q-89 0 -161 -72t-107 -172t-35 -184zM425 804q0 20 14.5 34.5t34.5 14.5t34.5 -14.5t14.5 -34.5t-14.5 -34.5t-34.5 -14.5t-34.5 14.5t-14.5 34.5zM614 804q0 20 14.5 34.5t34.5 14.5t34.5 -14.5t14.5 -34.5t-14.5 -34.5t-34.5 -14.5t-34.5 14.5t-14.5 34.5z" />
    <glyph glyph-name="multiply" unicode="&#xd7;" horiz-adv-x="668" 
d="M134 465l37 37l202 -202l203 203l37 -37l-203 -203l203 -203l-37 -37l-203 203l-202 -202l-37 37l202 202z" />
    <glyph glyph-name="Oslash" unicode="&#xd8;" horiz-adv-x="792" 
d="M227 115l425 474q-22 34 -62.5 55.5t-86.5 21.5q-89 0 -161 -72t-107 -172t-35 -184q0 -74 27 -123zM102 268q0 81 38.5 161t98 137t133.5 92.5t144 35.5q52 0 99.5 -18.5t73.5 -44.5l59 66l20 -15l-60 -68q84 -84 84 -212q0 -97 -55 -192.5t-153.5 -158.5t-210.5 -63
q-101 0 -171 60l-58 -65l-19 17l58 65q-81 81 -81 203zM665 567l-424 -475q57 -76 147 -76q45 0 91.5 20.5t80.5 54.5q57 57 95.5 159t38.5 184q0 74 -29 133z" />
    <glyph glyph-name="Ugrave" unicode="&#xd9;" horiz-adv-x="760" 
d="M150 682h285l-6 -25q-90 4 -116 -92l-86 -321q-11 -36 -11 -72q0 -60 55.5 -101.5t138.5 -41.5q112 0 173 61q40 40 58 112l71 297q11 44 11 80q0 37 -25 58t-67 20l6 25h238l-6 -25q-52 1 -79.5 -31.5t-47.5 -113.5l-76 -313q-26 -106 -99.5 -158.5t-184.5 -52.5
q-64 0 -115 18.5t-80 47.5t-43.5 60.5t-14.5 62.5q0 32 16 93l71 265q15 54 15 70q0 25 -22.5 39.5t-64.5 12.5zM562 730l-99 115q-9 9 -9 17q0 15 22 15h33q23 0 32.5 -5.5t14.5 -20.5l37 -121h-31z" />
    <glyph glyph-name="Uacute" unicode="&#xda;" horiz-adv-x="760" 
d="M150 682h285l-6 -25q-90 4 -116 -92l-86 -321q-11 -36 -11 -72q0 -60 55.5 -101.5t138.5 -41.5q112 0 173 61q40 40 58 112l71 297q11 44 11 80q0 37 -25 58t-67 20l6 25h238l-6 -25q-52 1 -79.5 -31.5t-47.5 -113.5l-76 -313q-26 -106 -99.5 -158.5t-184.5 -52.5
q-64 0 -115 18.5t-80 47.5t-43.5 60.5t-14.5 62.5q0 32 16 93l71 265q15 54 15 70q0 25 -22.5 39.5t-64.5 12.5zM532 730h-31l37 121q5 15 14.5 20.5t32.5 5.5h33q22 0 22 -15q0 -8 -9 -17z" />
    <glyph glyph-name="Ucircumflex" unicode="&#xdb;" horiz-adv-x="760" 
d="M150 682h285l-6 -25q-90 4 -116 -92l-86 -321q-11 -36 -11 -72q0 -60 55.5 -101.5t138.5 -41.5q112 0 173 61q40 40 58 112l71 297q11 44 11 80q0 37 -25 58t-67 20l6 25h238l-6 -25q-52 1 -79.5 -31.5t-47.5 -113.5l-76 -313q-26 -106 -99.5 -158.5t-184.5 -52.5
q-64 0 -115 18.5t-80 47.5t-43.5 60.5t-14.5 62.5q0 32 16 93l71 265q15 54 15 70q0 25 -22.5 39.5t-64.5 12.5zM554 822l-127 -98h-37l141 158h86l35 -158h-32z" />
    <glyph glyph-name="Udieresis" unicode="&#xdc;" horiz-adv-x="760" 
d="M150 682h285l-6 -25q-90 4 -116 -92l-86 -321q-11 -36 -11 -72q0 -60 55.5 -101.5t138.5 -41.5q112 0 173 61q40 40 58 112l71 297q11 44 11 80q0 37 -25 58t-67 20l6 25h238l-6 -25q-52 1 -79.5 -31.5t-47.5 -113.5l-76 -313q-26 -106 -99.5 -158.5t-184.5 -52.5
q-64 0 -115 18.5t-80 47.5t-43.5 60.5t-14.5 62.5q0 32 16 93l71 265q15 54 15 70q0 25 -22.5 39.5t-64.5 12.5zM409 804q0 20 14.5 34.5t34.5 14.5t34.5 -14.5t14.5 -34.5t-14.5 -34.5t-34.5 -14.5t-34.5 14.5t-14.5 34.5zM598 804q0 20 14.5 34.5t34.5 14.5t34.5 -14.5
t14.5 -34.5t-14.5 -34.5t-34.5 -14.5t-34.5 14.5t-14.5 34.5z" />
    <glyph glyph-name="Yacute" unicode="&#xdd;" horiz-adv-x="740" 
d="M453 257l-29 -109q-14 -53 -14 -69q0 -59 94 -54l-6 -25h-292l6 25q89 -3 115 93l37 139l-123 298q-27 66 -47 84t-64 18l6 25h273l-6 -25q-81 0 -81 -52q0 -41 22 -91l99 -229l177 205q44 51 57 72.5t13 44.5q0 22 -17 36.5t-53 13.5l6 25h234l-6 -25q-29 -2 -55 -20.5
t-82 -81.5zM522 730h-31l37 121q5 15 14.5 20.5t32.5 5.5h33q22 0 22 -15q0 -8 -9 -17z" />
    <glyph glyph-name="Thorn" unicode="&#xde;" horiz-adv-x="635" 
d="M332 552l-10 -37h100q109 0 165.5 -51t56.5 -118q0 -82 -72.5 -137.5t-179.5 -55.5q-87 0 -87 24q0 12 18 12h51q76 0 121.5 47.5t45.5 118.5q0 52 -41.5 93.5t-130.5 41.5h-54l-91 -342q-14 -55 -14 -69q0 -59 95 -54l-6 -25h-290l6 25q46 2 72.5 24.5t42.5 80.5
l109 404q14 55 14 71q0 25 -22.5 39.5t-63.5 12.5l6 25h277l-6 -23q-46 -2 -70.5 -24t-41.5 -83z" />
    <glyph glyph-name="germandbls" unicode="&#xdf;" horiz-adv-x="521" 
d="M59 32l100 415q28 119 89 183t146 64q64 0 108 -39t44 -96q0 -102 -142 -154v-2q47 -15 73 -55t26 -97q0 -94 -73.5 -178t-154.5 -84q-38 0 -63 16.5t-25 42.5q0 16 10.5 27.5t25.5 11.5q12 0 21.5 -8.5t16 -19t21 -19t34.5 -8.5q52 0 81.5 55t29.5 133q0 72 -29.5 110
t-93.5 49l7 25q29 -4 62 7.5t54 32.5q19 19 32.5 54.5t13.5 70.5q0 44 -25 71t-66 27q-54 0 -88 -46t-55 -136l-98 -411q-28 -117 -83 -189.5t-130 -72.5q-32 0 -52.5 15t-20.5 37q0 16 10 26t25 10q23 0 40.5 -27.5t36.5 -27.5q26 0 46 38.5t46 148.5z" />
    <glyph glyph-name="agrave" unicode="&#xe0;" horiz-adv-x="500" 
d="M491 441l-111 -363q-12 -41 13 -41q30 0 82 92h29q-27 -61 -67 -100.5t-75 -39.5q-23 0 -37 18.5t-14 47.5q0 31 18 86l-2 2q-81 -154 -189 -154q-43 0 -72 32t-29 80q0 60 31 124t76 111t95 77.5t87 30.5q73 0 102 -53q18 19 37 50h26zM182 48q13 0 36.5 10t44.5 31
q45 45 82.5 125.5t37.5 132.5q0 31 -18 50t-49 19q-50 0 -101 -51q-45 -45 -76.5 -113.5t-31.5 -118.5q0 -38 20.5 -61.5t54.5 -23.5zM357 511l-99 115q-9 9 -9 17q0 15 22 15h33q23 0 32.5 -5.5t14.5 -20.5l37 -121h-31z" />
    <glyph glyph-name="aacute" unicode="&#xe1;" horiz-adv-x="500" 
d="M491 441l-111 -363q-12 -41 13 -41q30 0 82 92h29q-27 -61 -67 -100.5t-75 -39.5q-23 0 -37 18.5t-14 47.5q0 31 18 86l-2 2q-81 -154 -189 -154q-43 0 -72 32t-29 80q0 60 31 124t76 111t95 77.5t87 30.5q73 0 102 -53q18 19 37 50h26zM182 48q13 0 36.5 10t44.5 31
q45 45 82.5 125.5t37.5 132.5q0 31 -18 50t-49 19q-50 0 -101 -51q-45 -45 -76.5 -113.5t-31.5 -118.5q0 -38 20.5 -61.5t54.5 -23.5zM327 511h-31l37 121q5 15 14.5 20.5t32.5 5.5h33q22 0 22 -15q0 -8 -9 -17z" />
    <glyph glyph-name="acircumflex" unicode="&#xe2;" horiz-adv-x="500" 
d="M491 441l-111 -363q-12 -41 13 -41q30 0 82 92h29q-27 -61 -67 -100.5t-75 -39.5q-23 0 -37 18.5t-14 47.5q0 31 18 86l-2 2q-81 -154 -189 -154q-43 0 -72 32t-29 80q0 60 31 124t76 111t95 77.5t87 30.5q73 0 102 -53q18 19 37 50h26zM182 48q13 0 36.5 10t44.5 31
q45 45 82.5 125.5t37.5 132.5q0 31 -18 50t-49 19q-50 0 -101 -51q-45 -45 -76.5 -113.5t-31.5 -118.5q0 -38 20.5 -61.5t54.5 -23.5zM349 603l-127 -98h-37l141 158h86l35 -158h-32z" />
    <glyph glyph-name="atilde" unicode="&#xe3;" horiz-adv-x="500" 
d="M491 441l-111 -363q-12 -41 13 -41q30 0 82 92h29q-27 -61 -67 -100.5t-75 -39.5q-23 0 -37 18.5t-14 47.5q0 31 18 86l-2 2q-81 -154 -189 -154q-43 0 -72 32t-29 80q0 60 31 124t76 111t95 77.5t87 30.5q73 0 102 -53q18 19 37 50h26zM182 48q13 0 36.5 10t44.5 31
q45 45 82.5 125.5t37.5 132.5q0 31 -18 50t-49 19q-50 0 -101 -51q-45 -45 -76.5 -113.5t-31.5 -118.5q0 -38 20.5 -61.5t54.5 -23.5zM216 526l-27 12q10 49 35 79.5t56 30.5q28 0 85 -31q37 -20 53 -20q36 0 59 51l28 -14q-28 -109 -94 -109q-31 0 -78 27q-40 23 -60 23
q-17 0 -30 -11t-27 -38z" />
    <glyph glyph-name="adieresis" unicode="&#xe4;" horiz-adv-x="500" 
d="M491 441l-111 -363q-12 -41 13 -41q30 0 82 92h29q-27 -61 -67 -100.5t-75 -39.5q-23 0 -37 18.5t-14 47.5q0 31 18 86l-2 2q-81 -154 -189 -154q-43 0 -72 32t-29 80q0 60 31 124t76 111t95 77.5t87 30.5q73 0 102 -53q18 19 37 50h26zM182 48q13 0 36.5 10t44.5 31
q45 45 82.5 125.5t37.5 132.5q0 31 -18 50t-49 19q-50 0 -101 -51q-45 -45 -76.5 -113.5t-31.5 -118.5q0 -38 20.5 -61.5t54.5 -23.5zM204 585q0 20 14.5 34.5t34.5 14.5t34.5 -14.5t14.5 -34.5t-14.5 -34.5t-34.5 -14.5t-34.5 14.5t-14.5 34.5zM393 585q0 20 14.5 34.5
t34.5 14.5t34.5 -14.5t14.5 -34.5t-14.5 -34.5t-34.5 -14.5t-34.5 14.5t-14.5 34.5z" />
    <glyph glyph-name="aring" unicode="&#xe5;" horiz-adv-x="500" 
d="M491 441l-111 -363q-12 -41 13 -41q30 0 82 92h29q-27 -61 -67 -100.5t-75 -39.5q-23 0 -37 18.5t-14 47.5q0 31 18 86l-2 2q-81 -154 -189 -154q-43 0 -72 32t-29 80q0 60 31 124t76 111t95 77.5t87 30.5q73 0 102 -53q18 19 37 50h26zM182 48q13 0 36.5 10t44.5 31
q45 45 82.5 125.5t37.5 132.5q0 31 -18 50t-49 19q-50 0 -101 -51q-45 -45 -76.5 -113.5t-31.5 -118.5q0 -38 20.5 -61.5t54.5 -23.5zM353 672q35 0 60 -25t25 -60t-25 -60.5t-60 -25.5t-60.5 25.5t-25.5 60.5t25.5 60t60.5 25zM351 643q-23 0 -39.5 -16.5t-16.5 -39.5
t16.5 -40t39.5 -17t40 17t17 40t-17 39.5t-40 16.5z" />
    <glyph glyph-name="ae" unicode="&#xe6;" horiz-adv-x="656" 
d="M610 136h31q-38 -70 -92.5 -108.5t-115.5 -38.5q-56 0 -87.5 35.5t-27.5 96.5l-2 2q-78 -134 -180 -134q-46 0 -76.5 30.5t-30.5 76.5q0 79 72 151q52 52 131.5 93.5t152 62t123 31t66.5 10.5q47 0 71 -22t24 -56q0 -50 -41.5 -89t-101 -61t-136.5 -34q-7 -31 -7 -46
q0 -40 24 -65t62 -25q36 0 75 25t66 65zM608 357q0 20 -14.5 34t-36.5 14q-46 0 -93.5 -59.5t-66.5 -139.5q93 20 152 62t59 89zM109 104q0 -27 18 -45.5t44 -18.5q44 0 85 38q30 28 53 77t54.5 108t80.5 108q10 10 30 28l-1 1q-193 -50 -292 -149q-72 -72 -72 -147z" />
    <glyph glyph-name="ccedilla" unicode="&#xe7;" horiz-adv-x="375" 
d="M100 -63l39 55q-44 8 -70.5 43t-26.5 85q0 68 44 145.5t107 128t115 50.5q34 0 56 -20t22 -51q0 -20 -11 -33t-28 -13q-34 0 -34 42q0 25 -5 33.5t-21 8.5q-27 0 -71 -41q-47 -45 -72 -108.5t-25 -117.5q0 -44 24.5 -72.5t63.5 -28.5q35 0 65.5 22t69.5 74h30
q-85 -150 -208 -150l-12 -21q47 -17 47 -63q0 -36 -34 -57t-101 -21h-26l8 26q91 -2 91 45q0 27 -37 39z" />
    <glyph glyph-name="egrave" unicode="&#xe8;" horiz-adv-x="375" 
d="M329 134h32q-82 -145 -194 -145q-56 0 -91 35.5t-35 91.5q0 72 43.5 150t105 128t113.5 50q35 0 55.5 -21t20.5 -57q0 -50 -42 -92q-36 -36 -98 -62t-122 -32q-5 -10 -5 -41q0 -42 24 -69t63 -27q33 0 69.5 24t60.5 67zM323 351q0 23 -15.5 38.5t-38.5 15.5
q-38 0 -76.5 -53.5t-67.5 -146.5q106 14 165 73q33 33 33 73zM294 511l-99 115q-9 9 -9 17q0 15 22 15h33q23 0 32.5 -5.5t14.5 -20.5l37 -121h-31z" />
    <glyph glyph-name="eacute" unicode="&#xe9;" horiz-adv-x="375" 
d="M329 134h32q-82 -145 -194 -145q-56 0 -91 35.5t-35 91.5q0 72 43.5 150t105 128t113.5 50q35 0 55.5 -21t20.5 -57q0 -50 -42 -92q-36 -36 -98 -62t-122 -32q-5 -10 -5 -41q0 -42 24 -69t63 -27q33 0 69.5 24t60.5 67zM323 351q0 23 -15.5 38.5t-38.5 15.5
q-38 0 -76.5 -53.5t-67.5 -146.5q106 14 165 73q33 33 33 73zM264 511h-31l37 121q5 15 14.5 20.5t32.5 5.5h33q22 0 22 -15q0 -8 -9 -17z" />
    <glyph glyph-name="ecircumflex" unicode="&#xea;" horiz-adv-x="375" 
d="M329 134h32q-82 -145 -194 -145q-56 0 -91 35.5t-35 91.5q0 72 43.5 150t105 128t113.5 50q35 0 55.5 -21t20.5 -57q0 -50 -42 -92q-36 -36 -98 -62t-122 -32q-5 -10 -5 -41q0 -42 24 -69t63 -27q33 0 69.5 24t60.5 67zM323 351q0 23 -15.5 38.5t-38.5 15.5
q-38 0 -76.5 -53.5t-67.5 -146.5q106 14 165 73q33 33 33 73zM286 603l-127 -98h-37l141 158h86l35 -158h-32z" />
    <glyph glyph-name="edieresis" unicode="&#xeb;" horiz-adv-x="375" 
d="M329 134h32q-82 -145 -194 -145q-56 0 -91 35.5t-35 91.5q0 72 43.5 150t105 128t113.5 50q35 0 55.5 -21t20.5 -57q0 -50 -42 -92q-36 -36 -98 -62t-122 -32q-5 -10 -5 -41q0 -42 24 -69t63 -27q33 0 69.5 24t60.5 67zM323 351q0 23 -15.5 38.5t-38.5 15.5
q-38 0 -76.5 -53.5t-67.5 -146.5q106 14 165 73q33 33 33 73zM141 585q0 20 14.5 34.5t34.5 14.5t34.5 -14.5t14.5 -34.5t-14.5 -34.5t-34.5 -14.5t-34.5 14.5t-14.5 34.5zM330 585q0 20 14.5 34.5t34.5 14.5t34.5 -14.5t14.5 -34.5t-14.5 -34.5t-34.5 -14.5t-34.5 14.5
t-14.5 34.5z" />
    <glyph glyph-name="igrave" unicode="&#xec;" horiz-adv-x="281" 
d="M71 309h-29q29 59 71 97t79 38q22 0 36.5 -15t14.5 -38q0 -26 -16 -74l-86 -247q-6 -20 -2.5 -28.5t12.5 -8.5q17 0 46.5 30.5t48.5 67.5h31q-27 -59 -72 -100.5t-82 -41.5q-23 0 -37 15t-14 41q0 24 9 53l85 246q20 57 -3 57q-18 0 -44.5 -26.5t-47.5 -65.5zM247 511
l-99 115q-9 9 -9 17q0 15 22 15h33q23 0 32.5 -5.5t14.5 -20.5l37 -121h-31z" />
    <glyph glyph-name="iacute" unicode="&#xed;" horiz-adv-x="281" 
d="M71 309h-29q29 59 71 97t79 38q22 0 36.5 -15t14.5 -38q0 -26 -16 -74l-86 -247q-6 -20 -2.5 -28.5t12.5 -8.5q17 0 46.5 30.5t48.5 67.5h31q-27 -59 -72 -100.5t-82 -41.5q-23 0 -37 15t-14 41q0 24 9 53l85 246q20 57 -3 57q-18 0 -44.5 -26.5t-47.5 -65.5zM217 511
h-31l37 121q5 15 14.5 20.5t32.5 5.5h33q22 0 22 -15q0 -8 -9 -17z" />
    <glyph glyph-name="icircumflex" unicode="&#xee;" horiz-adv-x="281" 
d="M71 309h-29q29 59 71 97t79 38q22 0 36.5 -15t14.5 -38q0 -26 -16 -74l-86 -247q-6 -20 -2.5 -28.5t12.5 -8.5q17 0 46.5 30.5t48.5 67.5h31q-27 -59 -72 -100.5t-82 -41.5q-23 0 -37 15t-14 41q0 24 9 53l85 246q20 57 -3 57q-18 0 -44.5 -26.5t-47.5 -65.5zM239 603
l-127 -98h-37l141 158h86l35 -158h-32z" />
    <glyph glyph-name="idieresis" unicode="&#xef;" horiz-adv-x="281" 
d="M71 309h-29q29 59 71 97t79 38q22 0 36.5 -15t14.5 -38q0 -26 -16 -74l-86 -247q-6 -20 -2.5 -28.5t12.5 -8.5q17 0 46.5 30.5t48.5 67.5h31q-27 -59 -72 -100.5t-82 -41.5q-23 0 -37 15t-14 41q0 24 9 53l85 246q20 57 -3 57q-18 0 -44.5 -26.5t-47.5 -65.5zM94 585
q0 20 14.5 34.5t34.5 14.5t34.5 -14.5t14.5 -34.5t-14.5 -34.5t-34.5 -14.5t-34.5 14.5t-14.5 34.5zM283 585q0 20 14.5 34.5t34.5 14.5t34.5 -14.5t14.5 -34.5t-14.5 -34.5t-34.5 -14.5t-34.5 14.5t-14.5 34.5z" />
    <glyph glyph-name="eth" unicode="&#xf0;" horiz-adv-x="448" 
d="M124 125q0 -47 20.5 -75t56.5 -28q39 0 69 30q41 41 65.5 115.5t24.5 132.5q0 50 -21 80.5t-55 30.5q-35 0 -70 -35q-43 -43 -66.5 -113t-23.5 -138zM461 670l-108 -56q46 -67 66.5 -145.5t20.5 -137.5q0 -135 -86 -238.5t-182 -103.5q-57 0 -92.5 38t-35.5 98
q3 69 32.5 132t68.5 102t77.5 62t63.5 23q45 0 73 -39l2 2q2 80 -52 184l-108 -55l-14 27l106 55q-17 33 -48 67l29 12q32 -24 60 -58l113 58z" />
    <glyph glyph-name="ntilde" unicode="&#xf1;" 
d="M54 0l111 363q13 42 -5 42q-15 0 -36 -22.5t-42 -61.5h-28q27 57 64.5 90t75.5 33q20 0 33.5 -12.5t13.5 -32.5q0 -22 -12 -62l-44 -138l2 -2q81 131 141 189t113 58q29 0 46 -15t17 -40q0 -26 -22 -90l-74 -212q-16 -44 8 -44q28 0 83 87h32q-37 -59 -78 -100t-75 -41
q-21 0 -35.5 14.5t-14.5 36.5q0 17 13 56l85 246q9 27 9 43q0 10 -6.5 16.5t-16.5 6.5q-27 0 -69 -42q-59 -59 -120 -152t-80 -153l-19 -61h-70zM231 526l-27 12q10 49 35 79.5t56 30.5q28 0 85 -31q37 -20 53 -20q36 0 59 51l28 -14q-28 -109 -94 -109q-31 0 -78 27
q-40 23 -60 23q-17 0 -30 -11t-27 -38z" />
    <glyph glyph-name="ograve" unicode="&#xf2;" horiz-adv-x="448" 
d="M44 125q0 76 39.5 150.5t102.5 121.5t126 47q55 0 91.5 -40t36.5 -100q0 -67 -37 -140t-100.5 -124t-130.5 -51q-57 0 -92.5 38t-35.5 98zM124 125q0 -47 20.5 -75t56.5 -28q39 0 69 30q41 41 65.5 115.5t24.5 132.5q0 50 -21 80.5t-55 30.5q-35 0 -70 -35
q-43 -43 -66.5 -113t-23.5 -138zM331 511l-99 115q-9 9 -9 17q0 15 22 15h33q23 0 32.5 -5.5t14.5 -20.5l37 -121h-31z" />
    <glyph glyph-name="oacute" unicode="&#xf3;" horiz-adv-x="448" 
d="M44 125q0 76 39.5 150.5t102.5 121.5t126 47q55 0 91.5 -40t36.5 -100q0 -67 -37 -140t-100.5 -124t-130.5 -51q-57 0 -92.5 38t-35.5 98zM124 125q0 -47 20.5 -75t56.5 -28q39 0 69 30q41 41 65.5 115.5t24.5 132.5q0 50 -21 80.5t-55 30.5q-35 0 -70 -35
q-43 -43 -66.5 -113t-23.5 -138zM301 511h-31l37 121q5 15 14.5 20.5t32.5 5.5h33q22 0 22 -15q0 -8 -9 -17z" />
    <glyph glyph-name="ocircumflex" unicode="&#xf4;" horiz-adv-x="448" 
d="M44 125q0 76 39.5 150.5t102.5 121.5t126 47q55 0 91.5 -40t36.5 -100q0 -67 -37 -140t-100.5 -124t-130.5 -51q-57 0 -92.5 38t-35.5 98zM124 125q0 -47 20.5 -75t56.5 -28q39 0 69 30q41 41 65.5 115.5t24.5 132.5q0 50 -21 80.5t-55 30.5q-35 0 -70 -35
q-43 -43 -66.5 -113t-23.5 -138zM323 603l-127 -98h-37l141 158h86l35 -158h-32z" />
    <glyph glyph-name="otilde" unicode="&#xf5;" horiz-adv-x="448" 
d="M44 125q0 76 39.5 150.5t102.5 121.5t126 47q55 0 91.5 -40t36.5 -100q0 -67 -37 -140t-100.5 -124t-130.5 -51q-57 0 -92.5 38t-35.5 98zM124 125q0 -47 20.5 -75t56.5 -28q39 0 69 30q41 41 65.5 115.5t24.5 132.5q0 50 -21 80.5t-55 30.5q-35 0 -70 -35
q-43 -43 -66.5 -113t-23.5 -138zM190 526l-27 12q10 49 35 79.5t56 30.5q28 0 85 -31q37 -20 53 -20q36 0 59 51l28 -14q-28 -109 -94 -109q-31 0 -78 27q-40 23 -60 23q-17 0 -30 -11t-27 -38z" />
    <glyph glyph-name="odieresis" unicode="&#xf6;" horiz-adv-x="448" 
d="M44 125q0 76 39.5 150.5t102.5 121.5t126 47q55 0 91.5 -40t36.5 -100q0 -67 -37 -140t-100.5 -124t-130.5 -51q-57 0 -92.5 38t-35.5 98zM124 125q0 -47 20.5 -75t56.5 -28q39 0 69 30q41 41 65.5 115.5t24.5 132.5q0 50 -21 80.5t-55 30.5q-35 0 -70 -35
q-43 -43 -66.5 -113t-23.5 -138zM178 585q0 20 14.5 34.5t34.5 14.5t34.5 -14.5t14.5 -34.5t-14.5 -34.5t-34.5 -14.5t-34.5 14.5t-14.5 34.5zM367 585q0 20 14.5 34.5t34.5 14.5t34.5 -14.5t14.5 -34.5t-14.5 -34.5t-34.5 -14.5t-34.5 14.5t-14.5 34.5z" />
    <glyph glyph-name="divide" unicode="&#xf7;" horiz-adv-x="668" 
d="M374 99q15 0 25 -10t10 -25t-10 -25.5t-25 -10.5t-25.5 10.5t-10.5 25.5t10.5 25t25.5 10zM374 499q15 0 25 -10t10 -25t-10 -25.5t-25 -10.5t-25.5 10.5t-10.5 25.5t10.5 25t25.5 10zM110 290h527v-53h-527v53z" />
    <glyph glyph-name="oslash" unicode="&#xf8;" horiz-adv-x="448" 
d="M357 332l-226 -256q21 -54 70 -54q39 0 69 30q41 41 65.5 115.5t24.5 132.5q0 20 -3 32zM44 125q0 76 39.5 150.5t102.5 121.5t126 47q47 0 84 -32l35 40l19 -16l-38 -43q28 -35 28 -89q0 -67 -37 -140t-100.5 -124t-130.5 -51q-54 0 -88 34l-42 -47l-18 16l44 50
q-24 31 -24 83zM125 106l225 254q-7 21 -25 36t-41 15q-35 0 -70 -35q-43 -43 -66.5 -113t-23.5 -138q0 -15 1 -19z" />
    <glyph glyph-name="ugrave" unicode="&#xf9;" 
d="M445 436h70l-111 -368q-12 -38 8 -38q14 0 38.5 26.5t39.5 57.5h27q-28 -58 -66 -91.5t-75 -33.5q-21 0 -33.5 12t-12.5 33q0 25 15 73l39 124l-2 2q-79 -126 -139 -185t-118 -59q-26 0 -42 15.5t-16 41.5q0 28 19 85l79 232q11 32 -11 32q-23 0 -81 -89h-30
q84 138 152 138q20 0 33 -13.5t13 -32.5q0 -20 -16 -66l-82 -243q-9 -27 -9 -40q0 -9 7 -15.5t17 -6.5q32 0 97 65q51 51 109.5 148.5t80.5 195.5zM372 511l-99 115q-9 9 -9 17q0 15 22 15h33q23 0 32.5 -5.5t14.5 -20.5l37 -121h-31z" />
    <glyph glyph-name="uacute" unicode="&#xfa;" 
d="M445 436h70l-111 -368q-12 -38 8 -38q14 0 38.5 26.5t39.5 57.5h27q-28 -58 -66 -91.5t-75 -33.5q-21 0 -33.5 12t-12.5 33q0 25 15 73l39 124l-2 2q-79 -126 -139 -185t-118 -59q-26 0 -42 15.5t-16 41.5q0 28 19 85l79 232q11 32 -11 32q-23 0 -81 -89h-30
q84 138 152 138q20 0 33 -13.5t13 -32.5q0 -20 -16 -66l-82 -243q-9 -27 -9 -40q0 -9 7 -15.5t17 -6.5q32 0 97 65q51 51 109.5 148.5t80.5 195.5zM342 511h-31l37 121q5 15 14.5 20.5t32.5 5.5h33q22 0 22 -15q0 -8 -9 -17z" />
    <glyph glyph-name="ucircumflex" unicode="&#xfb;" 
d="M445 436h70l-111 -368q-12 -38 8 -38q14 0 38.5 26.5t39.5 57.5h27q-28 -58 -66 -91.5t-75 -33.5q-21 0 -33.5 12t-12.5 33q0 25 15 73l39 124l-2 2q-79 -126 -139 -185t-118 -59q-26 0 -42 15.5t-16 41.5q0 28 19 85l79 232q11 32 -11 32q-23 0 -81 -89h-30
q84 138 152 138q20 0 33 -13.5t13 -32.5q0 -20 -16 -66l-82 -243q-9 -27 -9 -40q0 -9 7 -15.5t17 -6.5q32 0 97 65q51 51 109.5 148.5t80.5 195.5zM364 603l-127 -98h-37l141 158h86l35 -158h-32z" />
    <glyph glyph-name="udieresis" unicode="&#xfc;" 
d="M445 436h70l-111 -368q-12 -38 8 -38q14 0 38.5 26.5t39.5 57.5h27q-28 -58 -66 -91.5t-75 -33.5q-21 0 -33.5 12t-12.5 33q0 25 15 73l39 124l-2 2q-79 -126 -139 -185t-118 -59q-26 0 -42 15.5t-16 41.5q0 28 19 85l79 232q11 32 -11 32q-23 0 -81 -89h-30
q84 138 152 138q20 0 33 -13.5t13 -32.5q0 -20 -16 -66l-82 -243q-9 -27 -9 -40q0 -9 7 -15.5t17 -6.5q32 0 97 65q51 51 109.5 148.5t80.5 195.5zM219 585q0 20 14.5 34.5t34.5 14.5t34.5 -14.5t14.5 -34.5t-14.5 -34.5t-34.5 -14.5t-34.5 14.5t-14.5 34.5zM408 585
q0 20 14.5 34.5t34.5 14.5t34.5 -14.5t14.5 -34.5t-14.5 -34.5t-34.5 -14.5t-34.5 14.5t-14.5 34.5z" />
    <glyph glyph-name="yacute" unicode="&#xfd;" horiz-adv-x="500" 
d="M258 -24l-92 387q-7 31 -20 31q-30 0 -67 -98h-29q25 70 58.5 109t66.5 39q25 0 39 -18.5t25 -62.5l75 -323q58 70 91.5 142t33.5 128q0 22 -12.5 53.5t-12.5 42.5q0 17 10 27.5t26 10.5q22 0 37 -20t15 -50q0 -81 -66.5 -202t-170.5 -225q-135 -135 -249 -135
q-35 0 -57 13.5t-22 35.5q0 15 10.5 25t25.5 10q18 0 46 -19.5t48 -19.5q67 0 191 119zM327 511h-31l37 121q5 15 14.5 20.5t32.5 5.5h33q22 0 22 -15q0 -8 -9 -17z" />
    <glyph glyph-name="thorn" unicode="&#xfe;" horiz-adv-x="500" 
d="M151 -12l-18 -67q-9 -33 -9 -44q0 -20 17 -29.5t61 -10.5l-8 -25h-231l8 25q39 1 58.5 17.5t29.5 54.5l124 459q-52 -19 -124 -94h-33q79 101 169 137l50 185q7 28 8 39q2 22 -37 22h-55l7 25h63q65 0 101 12h12l-70 -256q11 3 29 5q8 1 24 1q73 0 117.5 -43.5
t44.5 -114.5q0 -109 -93 -202q-47 -47 -106 -68t-139 -28zM260 388l-100 -367q113 3 177 67q79 79 79 174q0 59 -33.5 93.5t-89.5 34.5q-19 0 -33 -2z" />
    <glyph glyph-name="ydieresis" unicode="&#xff;" horiz-adv-x="500" 
d="M258 -24l-92 387q-7 31 -20 31q-30 0 -67 -98h-29q25 70 58.5 109t66.5 39q25 0 39 -18.5t25 -62.5l75 -323q58 70 91.5 142t33.5 128q0 22 -12.5 53.5t-12.5 42.5q0 17 10 27.5t26 10.5q22 0 37 -20t15 -50q0 -81 -66.5 -202t-170.5 -225q-135 -135 -249 -135
q-35 0 -57 13.5t-22 35.5q0 15 10.5 25t25.5 10q18 0 46 -19.5t48 -19.5q67 0 191 119zM204 585q0 20 14.5 34.5t34.5 14.5t34.5 -14.5t14.5 -34.5t-14.5 -34.5t-34.5 -14.5t-34.5 14.5t-14.5 34.5zM393 585q0 20 14.5 34.5t34.5 14.5t34.5 -14.5t14.5 -34.5t-14.5 -34.5
t-34.5 -14.5t-34.5 14.5t-14.5 34.5z" />
    <glyph glyph-name="dotlessi" unicode="&#x131;" horiz-adv-x="281" 
d="M71 309h-29q29 59 71 97t79 38q22 0 36.5 -15t14.5 -38q0 -26 -16 -74l-86 -247q-6 -20 -2.5 -28.5t12.5 -8.5q17 0 46.5 30.5t48.5 67.5h31q-27 -59 -72 -100.5t-82 -41.5q-23 0 -37 15t-14 41q0 24 9 53l85 246q20 57 -3 57q-18 0 -44.5 -26.5t-47.5 -65.5z" />
    <glyph glyph-name="Lslash" unicode="&#x141;" horiz-adv-x="604" 
d="M287 377l-69 -258q-8 -28 -8 -39q0 -55 92 -55h77q84 0 138 32.5t112 113.5h22l-74 -171h-571l8 25q55 1 80.5 28.5t42.5 92.5l44 161l-2 2l-90 -71l14 57l93 72l44 166q14 53 14 70q0 49 -65 54l6 25h262l-6 -25q-53 0 -79 -29.5t-43 -94.5l-27 -97l2 -2l110 86l-16 -58
z" />
    <glyph glyph-name="lslash" unicode="&#x142;" horiz-adv-x="271" 
d="M209 321l-78 -255q-9 -31 13 -31q14 0 42 28t50 64h33q-32 -59 -78.5 -98.5t-83.5 -39.5q-20 0 -34.5 14.5t-14.5 35.5q0 23 17 77l47 153l-2 2l-80 -63l16 54l82 62l79 255q12 38 12 51q0 17 -15.5 22t-73.5 4l7 26q123 -3 162 12h14l-97 -317l2 -2l110 85l-17 -54z" />
    <glyph glyph-name="OE" unicode="&#x152;" horiz-adv-x="1042" 
d="M739 370h92q96 0 133 98h25l-65 -239h-25q7 51 -14.5 83.5t-68.5 32.5h-84q-12 -88 -83.5 -183.5t-174.5 -134.5v-2h299q71 0 122 31.5t109 110.5h24l-73 -167h-591q-116 0 -188 81.5t-72 191.5q0 78 36.5 155t90.5 131.5t116.5 88.5t115.5 34h638l-41 -154h-24
q7 52 -12.5 90.5t-66.5 38.5h-347v-2q64 -35 98.5 -96.5t34.5 -139.5q0 -22 -4 -49zM366 28q36 0 75.5 16t67.5 44q65 65 103.5 169.5t38.5 201.5q0 88 -45 141.5t-118 53.5q-78 0 -141 -64q-60 -61 -102.5 -171.5t-42.5 -196.5q0 -93 51 -143.5t113 -50.5z" />
    <glyph glyph-name="oe" unicode="&#x153;" horiz-adv-x="667" 
d="M621 135h32q-36 -67 -90.5 -106.5t-111.5 -39.5q-90 0 -115 82q-82 -82 -165 -82q-55 0 -89.5 37.5t-34.5 98.5q0 65 36 139t99 127t129 53q46 0 75.5 -21.5t49.5 -69.5q25 40 67.5 65.5t84.5 25.5q39 0 62 -20.5t23 -54.5q0 -64 -74.5 -116.5t-189.5 -68.5
q-8 -30 -8 -53q0 -40 23 -64t61 -24q76 0 136 92zM197 22q40 0 79 39q40 40 63 116t23 133q0 47 -20 74t-55 27q-37 0 -66 -29q-44 -44 -69 -121t-25 -140q0 -47 18.5 -73t51.5 -26zM616 352q0 20 -15.5 34.5t-37.5 14.5q-47 0 -84.5 -49t-61.5 -142q77 12 138 55.5t61 86.5
z" />
    <glyph glyph-name="Scaron" unicode="&#x160;" horiz-adv-x="594" 
d="M27 67l43 159l24 -6q-8 -83 43 -143.5t151 -60.5q73 0 119.5 36.5t46.5 92.5q0 38 -28.5 77t-69 73l-81 68t-69 75.5t-28.5 83.5q0 76 64 124t164 48q112 0 225 -64l-38 -145l-22 6q-3 84 -47.5 129.5t-121.5 45.5q-62 0 -101.5 -30.5t-39.5 -77.5q0 -35 28.5 -70
t68.5 -66.5t80.5 -66t69 -81t28.5 -98.5q0 -74 -60.5 -131t-176.5 -57q-62 0 -136 21.5t-136 57.5zM463 784l127 98h37l-141 -158h-86l-35 158h32z" />
    <glyph glyph-name="scaron" unicode="&#x161;" horiz-adv-x="344" 
d="M111 329q0 47 40 81t96 34q40 0 65.5 -18t25.5 -46q0 -15 -10.5 -26t-23.5 -11q-16 0 -26 10.5t-14.5 23.5t-15 23.5t-27.5 10.5q-24 0 -41.5 -15t-17.5 -35q0 -24 19 -54.5t42.5 -56t42.5 -61t19 -69.5q0 -56 -41.5 -93.5t-103.5 -37.5q-45 0 -77 23t-32 55
q0 15 10.5 25.5t25.5 10.5q16 0 27 -12.5t17 -28t20 -28t34 -12.5q27 0 46 19t19 45q0 24 -18.5 55t-41 56.5t-41 61.5t-18.5 70zM263 565l127 98h37l-141 -158h-86l-35 158h32z" />
    <glyph glyph-name="Ydieresis" unicode="&#x178;" horiz-adv-x="740" 
d="M453 257l-29 -109q-14 -53 -14 -69q0 -59 94 -54l-6 -25h-292l6 25q89 -3 115 93l37 139l-123 298q-27 66 -47 84t-64 18l6 25h273l-6 -25q-81 0 -81 -52q0 -41 22 -91l99 -229l177 205q44 51 57 72.5t13 44.5q0 22 -17 36.5t-53 13.5l6 25h234l-6 -25q-29 -2 -55 -20.5
t-82 -81.5zM399 804q0 20 14.5 34.5t34.5 14.5t34.5 -14.5t14.5 -34.5t-14.5 -34.5t-34.5 -14.5t-34.5 14.5t-14.5 34.5zM588 804q0 20 14.5 34.5t34.5 14.5t34.5 -14.5t14.5 -34.5t-14.5 -34.5t-34.5 -14.5t-34.5 14.5t-14.5 34.5z" />
    <glyph glyph-name="Zcaron" unicode="&#x17d;" horiz-adv-x="677" 
d="M726 682v-20l-583 -637h225q72 0 124.5 34.5t109.5 114.5h24l-71 -174h-532v25l579 632h-192q-65 0 -109.5 -28t-93.5 -94h-22l50 147h491zM504 784l127 98h37l-141 -158h-86l-35 158h32z" />
    <glyph glyph-name="zcaron" unicode="&#x17e;" horiz-adv-x="490" 
d="M455 432q0 12 16 12q22 0 22 -21q0 -37 -64 -101q-37 -37 -166.5 -116.5t-161.5 -116.5l2 -2q31 8 59 8q49 0 109 -29q19 -11 40 -20.5t36 -9.5q16 0 26.5 9.5t10.5 23.5q0 10 -14 26.5t-14 30.5t10 23.5t23 9.5q17 0 28.5 -14t11.5 -34q0 -47 -39 -84.5t-89 -37.5
q-44 0 -118 35q-70 35 -92 35q-10 0 -18 -7.5t-8 -17.5q0 -2 2.5 -12t2.5 -13q0 -20 -19 -20q-22 0 -22 22q0 38 57 100q23 24 49 44q38 29 133 87q100 61 136 96q18 16 20 17l-2 2l-7 -3q-32 -11 -50 -11q-35 0 -91 29q-50 29 -82 29q-16 0 -27.5 -9t-11.5 -21q0 -5 15 -20
t15 -31q0 -14 -10 -24t-24 -10q-17 0 -28.5 12.5t-11.5 31.5q0 47 39.5 80.5t95.5 33.5q46 0 104.5 -29.5t80.5 -29.5q10 0 20 6.5t10 15.5q0 4 -2 13.5t-2 11.5zM336 565l127 98h37l-141 -158h-86l-35 158h32z" />
    <glyph glyph-name="florin" unicode="&#x192;" horiz-adv-x="521" 
d="M295 430l5 22q26 116 76.5 179t115.5 63q33 0 52 -14t19 -39q0 -15 -10 -25t-24 -10q-21 0 -40 27.5t-34 27.5q-19 0 -33 -27.5t-31 -98.5l-26 -105h89l-6 -25h-89l-76 -318q-66 -275 -209 -275q-33 0 -52.5 13.5t-19.5 37.5q0 16 10 26.5t24 10.5q18 0 37 -27.5
t38 -27.5q43 0 72 120l106 440h-99l6 25h99z" />
    <glyph glyph-name="circumflex" unicode="&#x2c6;" horiz-adv-x="333" 
d="M265 603l-127 -98h-37l141 158h86l35 -158h-32z" />
    <glyph glyph-name="caron" unicode="&#x2c7;" horiz-adv-x="333" 
d="M257 565l127 98h37l-141 -158h-86l-35 158h32z" />
    <glyph glyph-name="uni02C9" unicode="&#x2c9;" horiz-adv-x="333" 
d="M131 617h337l-20 -65h-337z" />
    <glyph glyph-name="breve" unicode="&#x2d8;" horiz-adv-x="333" 
d="M171 657h9q-2 -42 18.5 -61.5t64.5 -19.5q41 0 68 18.5t50 62.5h11q-37 -142 -136 -142q-41 0 -68 25t-27 63q0 24 10 54z" />
    <glyph glyph-name="dotaccent" unicode="&#x2d9;" horiz-adv-x="333" 
d="M263 634q20 0 34.5 -14.5t14.5 -34.5t-14.5 -34.5t-34.5 -14.5t-34.5 14.5t-14.5 34.5t14.5 34.5t34.5 14.5z" />
    <glyph glyph-name="ring" unicode="&#x2da;" horiz-adv-x="333" 
d="M269 672q35 0 60 -25t25 -60t-25 -60.5t-60 -25.5t-60.5 25.5t-25.5 60.5t25.5 60t60.5 25zM267 643q-23 0 -39.5 -16.5t-16.5 -39.5t16.5 -40t39.5 -17t40 17t17 40t-17 39.5t-40 16.5z" />
    <glyph glyph-name="ogonek" unicode="&#x2db;" horiz-adv-x="333" 
d="M134 0h41q-45 -50 -45 -83q0 -25 17.5 -39t47.5 -14q24 0 54 9l-5 -35q-33 -14 -64 -14q-40 0 -68 24.5t-28 59.5q0 42 50 92z" />
    <glyph glyph-name="tilde" unicode="&#x2dc;" horiz-adv-x="333" 
d="M132 526l-27 12q10 49 35 79.5t56 30.5q28 0 85 -31q37 -20 53 -20q36 0 59 51l28 -14q-28 -109 -94 -109q-31 0 -78 27q-40 23 -60 23q-17 0 -30 -11t-27 -38z" />
    <glyph glyph-name="hungarumlaut" unicode="&#x2dd;" horiz-adv-x="333" 
d="M361 510h-31l37 121q5 15 14.5 20.5t32.5 5.5h33q22 0 22 -15q0 -8 -9 -17zM226 510h-31l37 121q5 15 14.5 20.5t32.5 5.5h33q22 0 22 -15q0 -8 -9 -17z" />
    <glyph glyph-name="uni03A9" unicode="&#x3a9;" horiz-adv-x="695" 
d="M646 123l-60 -123h-217l-1 16q4 4 44 47t58.5 65.5t50.5 64.5t53 82.5t33 82.5q32 102 19 164.5t-48 89.5t-89 27q-89 0 -167 -70.5t-123 -216.5q-6 -21 -10 -42t-6.5 -38t-1.5 -39t1.5 -35t5 -35.5t6 -31.5t8 -32t8 -28t10 -29t8.5 -25l-12 -17h-214l16 123l20 2
q0 -47 10 -61t39 -14h106q-115 142 -64 309q42 137 147 221t223 84q120 0 171.5 -79.5t9.5 -217.5q-19 -64 -67.5 -129t-90 -104t-98.5 -84h107q31 0 47.5 12.5t47.5 62.5z" />
    <glyph glyph-name="uni03BC" unicode="&#x3bc;" horiz-adv-x="500" 
d="M247 436l-118 -347q-9 -28 -9 -40q0 -9 7 -15.5t17 -6.5q17 0 35 11.5t54 47.5q63 63 112.5 147t72.5 158l14 45h70l-110 -365q-12 -41 6 -41q13 0 36 24t42 60h28q-29 -58 -66.5 -91.5t-74.5 -33.5q-22 0 -34.5 12t-12.5 33q0 22 16 73l38 124l-2 2q-149 -244 -256 -244
q-30 0 -46 19q-9 -26 -20 -110t-29 -102q-14 -14 -30 -14q-15 0 -26 10t-11 24q0 16 9 35t25.5 45.5t24.5 44.5q13 28 25 64.5t23 73.5t14 46l106 311h70z" />
    <glyph glyph-name="pi" unicode="&#x3c0;" horiz-adv-x="529" 
d="M564 448l17 -9q-24 -43 -54 -71q-21 -4 -69 -4q-12 -31 -78 -241q-26 -89 17 -89q25 0 61 33l7 -16q-53 -62 -110 -62q-38 0 -48.5 23.5t7.5 94.5q24 78 90 259q-59 2 -164 2l-6 -21q-30 -98 -69 -180t-63 -117t-36 -45q-37 -15 -56 -16v14q65 56 118 162t83 205
q-31 0 -58 -7.5t-40.5 -15t-40.5 -25.5l-7 17q53 45 85 60q43 20 94 20q31 0 117 -2t136 -2q22 0 35 6.5t32 26.5z" />
    <glyph glyph-name="endash" unicode="&#x2013;" horiz-adv-x="500" 
d="M-6 282h512v-64h-512v64z" />
    <glyph glyph-name="emdash" unicode="&#x2014;" horiz-adv-x="1000" 
d="M-6 282h1012v-64h-1012v64z" />
    <glyph glyph-name="quoteleft" unicode="&#x2018;" horiz-adv-x="271" 
d="M354 694v-29q-58 -7 -94 -40t-36 -75q0 -18 11.5 -29t25.5 -15t25.5 -15t11.5 -29q0 -24 -15 -38.5t-39 -14.5q-35 0 -58.5 30.5t-23.5 74.5q0 56 51.5 112.5t140.5 67.5z" />
    <glyph glyph-name="quoteright" unicode="&#x2019;" horiz-adv-x="271" 
d="M120 409v29q58 7 94 40t36 75q0 18 -11.5 29t-25.5 15t-25.5 15t-11.5 29q0 23 15 38t39 15q35 0 58.5 -30.5t23.5 -74.5q0 -56 -51.5 -112.5t-140.5 -67.5z" />
    <glyph glyph-name="quotesinglbase" unicode="&#x201a;" horiz-adv-x="271" 
d="M18 -149v29q58 7 94 40t36 75q0 18 -11.5 29t-25.5 15t-25.5 15t-11.5 29q0 23 15 38t39 15q35 0 58.5 -30.5t23.5 -74.5q0 -56 -51.5 -112.5t-140.5 -67.5z" />
    <glyph glyph-name="quotedblleft" unicode="&#x201c;" horiz-adv-x="490" 
d="M572 694v-29q-58 -7 -94 -40t-36 -75q0 -18 11.5 -29t25.5 -15t25.5 -15t11.5 -29q0 -24 -15 -38.5t-39 -14.5q-35 0 -58.5 30.5t-23.5 74.5q0 56 51.5 112.5t140.5 67.5zM342 694v-29q-58 -7 -94 -40t-36 -75q0 -18 11.5 -29t25.5 -15t25.5 -15t11.5 -29
q0 -24 -15 -38.5t-39 -14.5q-35 0 -58.5 30.5t-23.5 74.5q0 56 51.5 112.5t140.5 67.5z" />
    <glyph glyph-name="quotedblright" unicode="&#x201d;" horiz-adv-x="490" 
d="M342 409v29q58 7 94 40t36 75q0 18 -11.5 29t-25.5 15t-25.5 15t-11.5 29q0 23 15 38t39 15q35 0 58.5 -30.5t23.5 -74.5q0 -56 -51.5 -112.5t-140.5 -67.5zM112 409v29q58 7 94 40t36 75q0 18 -11.5 29t-25.5 15t-25.5 15t-11.5 29q0 23 15 38t39 15q35 0 58.5 -30.5
t23.5 -74.5q0 -56 -51.5 -112.5t-140.5 -67.5z" />
    <glyph glyph-name="quotedblbase" unicode="&#x201e;" horiz-adv-x="490" 
d="M247 -149v29q58 7 94 40t36 75q0 18 -11.5 29t-25.5 15t-25.5 15t-11.5 29q0 23 14.5 38t39.5 15q35 0 58.5 -30.5t23.5 -74.5q0 -56 -51.5 -112.5t-140.5 -67.5zM17 -149v29q58 7 94 40t36 75q0 18 -11.5 29t-25.5 15t-25.5 15t-11.5 29q0 23 14.5 38t39.5 15
q35 0 58.5 -30.5t23.5 -74.5q0 -56 -51.5 -112.5t-140.5 -67.5z" />
    <glyph glyph-name="dagger" unicode="&#x2020;" horiz-adv-x="521" 
d="M296 424l42 241q5 29 24 29h59q26 0 26 -21q0 -7 -11 -31l-98 -218l150 27q25 5 39 5q15 0 25 -9t10 -21q0 -23 -9.5 -43.5t-27.5 -20.5q-3 0 -11 0.5t-9 0.5l-178 25l-133 -548q-7 -28 -33 -28h-52q-25 0 -25 21q0 8 7 22l194 533l-147 -22q-30 -5 -44 -5q-26 0 -26 33
q0 34 9.5 47.5t33.5 13.5q5 0 25.5 -3.5t21.5 -3.5z" />
    <glyph glyph-name="daggerdbl" unicode="&#x2021;" horiz-adv-x="417" 
d="M203 249l59 174l-112 -29q-32 -7 -37 -7q-9 0 -14.5 6t-5.5 14q0 16 12 44.5t31 28.5q12 0 32 -5l102 -26l24 197q4 30 14.5 39t40.5 9q39 0 39 -19q0 -9 -17 -52l-68 -174l111 24q28 7 39 7q5 0 9.5 -5t4.5 -11q0 -14 -12.5 -45.5t-30.5 -31.5q-21 0 -41 7l-88 29
l-34 -174l-54 -174l113 32q12 4 25 4q9 0 16 -7t7 -16q0 -12 -13 -42.5t-26 -30.5q-16 0 -34 6l-97 25l-17 -150q-6 -51 -19.5 -67.5t-43.5 -16.5q-42 0 -42 24q0 13 9 32l80 178l-108 -23q-36 -8 -42 -8q-14 0 -14 20q0 22 12.5 49.5t27.5 27.5q10 0 27 -5l105 -32z" />
    <glyph glyph-name="bullet" unicode="&#x2022;" horiz-adv-x="281" 
d="M190 459q53 0 91 -38t38 -91t-38 -91t-91 -38t-91 38t-38 91t38 91t91 38z" />
    <glyph glyph-name="ellipsis" unicode="&#x2026;" horiz-adv-x="1000" 
d="M167 99q23 0 39 -16.5t16 -38.5t-16 -38.5t-39 -16.5t-39 16.5t-16 38.5t16 38.5t39 16.5zM500 99q22 0 38.5 -16.5t16.5 -38.5t-16.5 -38.5t-38.5 -16.5t-38.5 16.5t-16.5 38.5t16.5 38.5t38.5 16.5zM833 99q23 0 39 -16.5t16 -38.5t-16 -38.5t-39 -16.5t-39 16.5
t-16 38.5t16 38.5t39 16.5z" />
    <glyph glyph-name="perthousand" unicode="&#x2030;" horiz-adv-x="1125" 
d="M1087 218q0 -87 -50 -155.5t-112 -68.5q-44 0 -70.5 33t-26.5 87q0 84 49.5 152t110.5 68q43 0 71 -33t28 -83zM1039 242q0 32 -14 50.5t-37 18.5q-21 0 -38 -17q-29 -29 -51.5 -102t-22.5 -109q0 -29 14 -47.5t37 -18.5q24 0 41 17q27 27 49 101.5t22 106.5zM728 218
q0 -87 -50 -155.5t-112 -68.5q-44 0 -70.5 33t-26.5 87q0 84 49.5 152t110.5 68q43 0 71 -33t28 -83zM680 242q0 32 -14 50.5t-37 18.5q-21 0 -38 -17q-29 -29 -51.5 -102t-22.5 -109q0 -29 14 -47.5t37 -18.5q24 0 41 17q27 27 49 101.5t22 106.5zM366 546
q0 -87 -50 -155.5t-112 -68.5q-44 0 -70.5 33t-26.5 87q0 84 49.5 152t110.5 68q43 0 71 -33t28 -83zM318 570q0 32 -14 50.5t-37 18.5q-21 0 -38 -17q-29 -29 -51.5 -102t-22.5 -109q0 -29 14 -47.5t37 -18.5q24 0 41 17q27 27 49 101.5t22 106.5zM71 -42l646 736h48
l-646 -736h-48z" />
    <glyph glyph-name="guilsinglleft" unicode="&#x2039;" horiz-adv-x="271" 
d="M156 257l68 -204h-20l-117 204l180 198h22z" />
    <glyph glyph-name="guilsinglright" unicode="&#x203a;" horiz-adv-x="271" 
d="M172 251l-69 204h21l117 -204l-181 -198h-21z" />
    <glyph glyph-name="fraction" unicode="&#x2044;" horiz-adv-x="125" 
d="M-261 -42l651 736h44l-646 -736h-49z" />
    <glyph glyph-name="Euro" unicode="&#x20ac;" 
d="M492 301l-8 -29h-288v-22q0 -229 127 -229q64 0 132 68l21 -17q-72 -84 -163 -84q-86 0 -143.5 76t-57.5 188q0 13 1 20h-56l8 29h50q2 17 10 56h-56l8 29h56q35 118 111.5 200t165.5 82q79 0 149 -50l-23 -146h-27v14q0 56 -27 103.5t-72 47.5q-70 0 -121 -70.5
t-77 -180.5h300l-8 -29h-298q-6 -34 -8 -56h294z" />
    <glyph glyph-name="afii61289" unicode="&#x2113;" horiz-adv-x="373" 
d="M318 101l11 -14q-82 -97 -177 -97q-60 0 -78 37q-19 38 11 136l26 85l-73 -46l-5 19l87 58l36 117q38 127 63 178t66 85q42 38 82 38q37 0 47 -37t-6 -86q-43 -139 -227 -286l-29 -94q-26 -97 -15 -129.5t55 -32.5q59 0 126 69zM232 455l-40 -129q61 54 109 120t66 127
q14 41 9.5 69t-26.5 28q-28 0 -55.5 -50.5t-62.5 -164.5z" />
    <glyph glyph-name="trademark" unicode="&#x2122;" horiz-adv-x="906" 
d="M54 662h364l7 -103h-17q-5 42 -26 58t-69 16h-29v-284q0 -40 9.5 -51.5t41.5 -12.5v-17h-197v17q35 3 42.5 13t7.5 51v284h-30q-47 0 -67 -16t-27 -58h-16zM622 662l125 -265l123 265h148v-18q-34 -1 -43 -12.5t-9 -53.5v-229q0 -40 9 -51t43 -13v-17h-205v17q37 1 47 12
t10 52v242h-2l-150 -323h-15l-150 320h-2v-245q0 -37 10.5 -47.5t50.5 -10.5v-17h-145v17q35 1 44.5 12t9.5 52v229q0 43 -9.5 54.5t-44.5 11.5v18h155z" />
    <glyph glyph-name="Omega" unicode="&#x2126;" horiz-adv-x="695" 
d="M646 123l-60 -123h-217l-1 16q4 4 44 47t58.5 65.5t50.5 64.5t53 82.5t33 82.5q32 102 19 164.5t-48 89.5t-89 27q-89 0 -167 -70.5t-123 -216.5q-6 -21 -10 -42t-6.5 -38t-1.5 -39t1.5 -35t5 -35.5t6 -31.5t8 -32t8 -28t10 -29t8.5 -25l-12 -17h-214l16 123l20 2
q0 -47 10 -61t39 -14h106q-115 142 -64 309q42 137 147 221t223 84q120 0 171.5 -79.5t9.5 -217.5q-19 -64 -67.5 -129t-90 -104t-98.5 -84h107q31 0 47.5 12.5t47.5 62.5z" />
    <glyph glyph-name="estimated" unicode="&#x212e;" horiz-adv-x="968" 
d="M936 317h-610q-5 0 -5 -4v-184q0 -11 8 -21q97 -100 230 -100q146 0 243 112h54q-51 -60 -129.5 -95.5t-168.5 -35.5q-155 0 -265.5 99t-110.5 238q0 141 110 240t266 99q157 0 267.5 -99t110.5 -240v-9zM797 342v185q0 13 -9 22q-98 96 -229 96q-132 0 -229 -99
q-9 -9 -9 -23v-181q0 -6 5 -6h467q4 0 4 6z" />
    <glyph glyph-name="partialdiff" unicode="&#x2202;" horiz-adv-x="493" 
d="M318 409h1q38 0 70 -18.5t44 -54.5q20 46 37 99q26 79 20 154q-3 41 -30.5 73.5t-71.5 32.5q-66 0 -142 -51q-7 -1 -12 7t-4.5 19.5t6.5 20.5q71 40 144 40q120 0 147 -133q18 -86 -21 -218q-48 -151 -119 -244q-110 -146 -231 -146q-77 0 -107.5 51.5t-3.5 140.5
t102 156q36 31 82.5 51t88.5 20zM325 376h-1q-70 0 -131 -57q-61 -61 -93 -165q-19 -55 -2 -96.5t65 -41.5q72 0 150 100q50 64 103 183q-4 26 -28.5 51.5t-62.5 25.5z" />
    <glyph glyph-name="Delta" unicode="&#x2206;" horiz-adv-x="594" 
d="M506 0h-524l5 18l440 637l30 9l55 -646zM441 37l-42 532l-363 -532h405z" />
    <glyph glyph-name="product" unicode="&#x220f;" horiz-adv-x="780" 
d="M754 654v-20q-60 -4 -72.5 -12.5t-12.5 -42.5v-575q0 -41 13 -51.5t70 -14.5v-21h-226v21q58 4 70.5 13.5t12.5 52.5v594q0 19 -6 24t-26 5h-227q-20 0 -25.5 -4.5t-5.5 -20.5v-598q0 -41 10.5 -51t65.5 -15v-21h-218v21q57 5 69.5 14.5t12.5 51.5v575q0 34 -12.5 42.5
t-72.5 12.5v20h580z" />
    <glyph glyph-name="summation" unicode="&#x2211;" horiz-adv-x="665" 
d="M643 80l-39 -164h-429v19l217 342l-212 359v18h424q0 -7 4.5 -60t6.5 -85l-21 -5q-11 66 -30 97q-9 16 -27.5 21.5t-70.5 5.5h-206l187 -314l-214 -344h258q62 0 82 17t48 99z" />
    <glyph glyph-name="minus" unicode="&#x2212;" horiz-adv-x="667" 
d="M110 290h527v-53h-527v53z" />
    <glyph glyph-name="uni2215" unicode="&#x2215;" horiz-adv-x="125" 
d="M-261 -42l651 736h44l-646 -736h-49z" />
    <glyph glyph-name="uni2219" unicode="&#x2219;" horiz-adv-x="271" 
d="M201 398q23 0 40 -17t17 -40t-17 -40t-40 -17t-40 17t-17 40t17 40t40 17z" />
    <glyph glyph-name="radical" unicode="&#x221a;" horiz-adv-x="666" 
d="M647 848l-153 -979l-15 -10l-209 526l-82 -41l-9 26l132 65l172 -440h2l130 861z" />
    <glyph glyph-name="infinity" unicode="&#x221e;" horiz-adv-x="784" 
d="M738 272v-1q0 -64 -41 -104t-98 -40q-41 0 -79 26t-90 84q-30 -35 -51 -55t-54.5 -37.5t-68.5 -17.5q-56 0 -96 41t-40 100q0 62 40.5 103t101.5 41q47 0 87 -29t85 -81q26 29 38 41.5t35.5 32.5t47.5 28t51 8q59 0 95.5 -39t36.5 -101zM262 167h1q14 0 29 5.5t25.5 11
t26 19t22 20t22.5 24t19 20.5q-23 28 -33 39t-31.5 31t-42 28t-44.5 8q-43 0 -68 -31t-25 -75q1 -42 28.5 -71t70.5 -29zM601 373h-1q-22 0 -45.5 -13t-36.5 -24t-36.5 -36.5t-26.5 -28.5q53 -59 82.5 -81.5t64.5 -22.5q42 0 67.5 30.5t25.5 70.5q0 49 -26 77t-68 28z" />
    <glyph glyph-name="integral" unicode="&#x222b;" horiz-adv-x="488" 
d="M303 26l-17 396q-5 113 3 191t27.5 118.5t43.5 57t57 16.5q18 0 33.5 -10t15.5 -28q0 -16 -9.5 -24.5t-23.5 -8.5t-25.5 17.5t-21.5 17.5q-13 0 -23.5 -12t-18.5 -52t-5 -103l17 -372q5 -102 -0.5 -177.5t-17 -119.5t-30.5 -70.5t-38.5 -35t-44.5 -8.5q-22 0 -36 11.5
t-14 27.5q-1 15 10.5 25.5t28.5 10.5q12 0 23 -18.5t21 -18.5q24 0 36.5 46.5t8.5 122.5z" />
    <glyph glyph-name="approxequal" unicode="&#x2248;" horiz-adv-x="585" 
d="M515 398l28 -23q-43 -87 -118 -87q-18 0 -36.5 5.5t-30.5 11.5t-41 22q-54 31 -86 31q-29 0 -49.5 -18t-42.5 -51l-28 23q45 87 126 87q13 0 25 -2.5t24 -7.5t19.5 -8.5t19.5 -10.5t16 -9t13 -7t12.5 -7t11 -5.5t12 -5t11 -3.5t13 -2.5t13.5 -0.5q49 0 88 68zM515 244
l28 -23q-45 -86 -118 -86q-26 0 -47.5 8.5t-60.5 29.5q-54 31 -85 31q-30 0 -51 -18t-42 -51l-28 23q45 87 126 87q16 0 33 -4.5t25.5 -8.5t25.5 -13.5t19 -10.5q56 -32 88 -32q48 0 87 68z" />
    <glyph glyph-name="notequal" unicode="&#x2260;" horiz-adv-x="610" 
d="M460 466l-42 -91h145v-42h-162l-63 -135h225v-42h-242l-50 -108l-34 15l43 93h-139v42h157l62 135h-219v42h236l49 107z" />
    <glyph glyph-name="lessequal" unicode="&#x2264;" horiz-adv-x="631" 
d="M583 93l-415 208v44l415 207v-50l-368 -177v-2l368 -179v-51zM585 12h-422v43h422v-43z" />
    <glyph glyph-name="greaterequal" unicode="&#x2265;" horiz-adv-x="632" 
d="M169 552l414 -207v-44l-414 -208v51l367 178v2l-367 178v50zM585 12h-421v43h421v-43z" />
    <glyph glyph-name="lozenge" unicode="&#x25ca;" horiz-adv-x="673" 
d="M626 316l-190 -381h-48l-190 381l191 385h47zM578 316l-164 336h-2l-165 -334l165 -336h2z" />
    <glyph glyph-name="f_i" unicode="&#xfb01;" horiz-adv-x="573" 
d="M71 430h95q29 117 101 190.5t183 73.5q44 0 70.5 -15t26.5 -41q0 -16 -11 -26.5t-27 -10.5q-23 0 -51 30t-62 30q-107 0 -160 -231h181q43 0 79 11h20l-94 -384q-5 -21 9 -21t39.5 26t45.5 62h33q-33 -59 -76.5 -97t-79.5 -38q-20 0 -32 12.5t-12 33.5q0 9 5 31l73 307
q2 11 1.5 18t-8 10.5t-24.5 3.5h-168l-76 -319q-32 -135 -86.5 -204.5t-125.5 -69.5q-29 0 -50 15.5t-21 36.5q0 14 10.5 24.5t24.5 10.5q22 0 39.5 -27t35.5 -27q27 0 45.5 34t38.5 121l95 405h-95z" />
    <glyph glyph-name="f_l" unicode="&#xfb02;" horiz-adv-x="573" 
d="M527 682l71 12q-10 -22 -22 -71l-133 -563q-5 -22 9 -22t41 27t44 60h32q-32 -60 -74.5 -98t-77.5 -38q-20 0 -33.5 12.5t-13.5 31.5q0 16 5 39l80 333h-210l-75 -323q-17 -72 -43 -129.5t-70 -99t-98 -41.5q-31 0 -52 15t-21 37q0 14 10.5 24.5t24.5 10.5
q19 0 29.5 -13.5t20 -27t25.5 -13.5q27 0 46.5 35t38.5 120l94 405h-94l8 25h94q33 124 109.5 194t176.5 70q37 0 58 -12zM461 430l43 177q-11 6 -24 20.5t-28 24t-39 9.5q-107 0 -160 -231h208z" />
    </font>
</defs>
</svg>
