<?xml version="1.0" encoding="utf-8"?>
<!-- Generator: Adobe Illustrator 18.0.0, SVG Export Plug-In . SVG Version: 6.00 Build 0)  -->
<!DOCTYPE svg PUBLIC "-//W3C//DTD SVG 1.1//EN" "http://www.w3.org/Graphics/SVG/1.1/DTD/svg11.dtd">
<svg version="1.1" id="Calque_1" xmlns="http://www.w3.org/2000/svg" xmlns:xlink="http://www.w3.org/1999/xlink" x="0px" y="0px"
	 viewBox="0 0 595.3 90.7" enable-background="new 0 0 595.3 90.7" xml:space="preserve">
<g>
	<path d="M0.3,2.5C0.4,1.8,0.6,1.2,1,0.7C1.4,0.2,2.1,0,3.1,0h3.2l6.6,0.3h16.5L55,60.8L81.6,0.3h14.9L103,0h3.2
		c1,0,1.7,0.2,2.1,0.7c0.4,0.5,0.6,1.1,0.7,1.8l0.3,4.1L99.5,10v69.6l9.8,3.4l-0.3,3.8c-0.1,0.7-0.3,1.3-0.6,1.8
		c-0.3,0.5-0.9,0.7-1.9,0.7h-3.2l-6.8-0.3H86.1l-6.6,0.3h-3.2c-1,0-1.7-0.2-2.1-0.7c-0.4-0.5-0.6-1.1-0.7-1.8L73.3,83l9.7-3.3V23.1
		h-1.5l-26.8,61c-0.2,0.4-0.4,0.6-0.6,0.8c-0.2,0.2-0.6,0.3-1.2,0.3h-4.3c-0.6,0-1-0.1-1.2-0.3c-0.2-0.2-0.4-0.5-0.5-0.8l-26.5-61
		h-1.3v56.5l9.8,3.4l-0.3,3.8c-0.1,0.7-0.3,1.3-0.6,1.8c-0.3,0.5-0.9,0.7-1.8,0.7H23l-6.8-0.3H13l-6.6,0.3H3.2c-1,0-1.7-0.2-2.1-0.7
		c-0.4-0.5-0.6-1.1-0.7-1.8L0.2,83l9.7-3.3V9.9L0,6.6L0.3,2.5z"/>
	<path d="M114.8,66.4c0.6-1.7,1.6-3.3,2.9-4.7c1.3-1.4,3-2.7,5-3.8c2-1.1,4.4-2,7.2-2.7l14.6-3.4v-5.1c0-6.8-2.6-10.3-7.7-10.3
		c-0.9,0-1.7,0.1-2.5,0.4c-0.8,0.3-1.5,0.6-2.1,0.9c-0.8,0.4-1.5,0.8-2.1,1.3l-0.1,8.2l-2.9,2.8h-7.3c-1.7,0-2.8-0.5-3.4-1.5
		c-0.6-1-0.9-2.1-0.9-3.4c0-2.7,0.6-5.1,1.8-7.1c1.2-2.1,2.8-3.8,4.9-5.3c2.1-1.4,4.4-2.5,7.1-3.3c2.7-0.7,5.5-1.1,8.5-1.1
		c7.4,0,12.9,1.7,16.5,5.1c3.6,3.4,5.4,8.5,5.4,15.3l0,30.6l9,3.8l-0.1,3.8c0,0.6-0.2,1-0.5,1.4c-0.3,0.3-1,0.6-1.9,0.7l-5.6,0.7
		c-1.2,0.1-2.4,0.1-3.5-0.1c-1.1-0.2-2.1-0.6-3-1c-0.9-0.4-1.7-1-2.4-1.5c-0.7-0.6-1.2-1.2-1.5-1.8h-4.4l-4.8,2.9
		c-1.4,0.8-2.8,1.4-4.1,1.8c-1.3,0.4-2.9,0.6-4.7,0.6c-2.5,0-4.8-0.4-7-1.2c-2.2-0.8-4.1-1.8-5.7-3.2c-1.6-1.4-2.9-3-3.9-4.9
		c-1-1.9-1.4-4-1.4-6.3C113.8,73.2,113.8,68.9,114.8,66.4z M131.5,80.4c1,0.9,2.3,1.3,3.8,1.3c0.6,0,1.3-0.1,1.9-0.3
		c0.7-0.2,1.2-0.5,1.6-0.7l5.5-3.2V61.3l-1.7-1.6l-9.2,2.4l-3.6,3.5v11.1C129.9,78.3,130.5,79.5,131.5,80.4z"/>
	<path d="M207.5,71.7c0-0.4,0.1-0.8,0.4-1.3c0.4-0.6,0.9-0.9,1.7-0.9h5.8l6.2,11.4c0.4,0.4,1,0.8,1.7,1.1c0.6,0.3,1.3,0.5,2.2,0.7
		c0.9,0.2,1.9,0.3,3.1,0.3c1.1,0,2.1-0.1,3.1-0.4c1-0.2,1.8-0.7,2.6-1.2c0.7-0.6,1.3-1.3,1.7-2.3c0.4-0.9,0.6-2.1,0.6-3.6
		c0-1.4-0.3-2.7-0.9-3.8c-0.6-1.1-1.6-2.1-3-2.9l-14.2-8.7c-2.8-1.9-5.1-4.2-6.8-6.8c-1.7-2.6-2.6-5.6-2.6-8.9
		c0-2.1,0.4-4.2,1.3-6.1c0.9-2,2.1-3.7,3.8-5.1c1.7-1.5,3.7-2.7,6.2-3.6c2.4-0.9,5.2-1.3,8.4-1.3c2.2,0,4.4,0.2,6.4,0.6
		c2,0.4,3.8,0.8,5.4,1.3c1.8,0.5,3.5,1.1,5,1.8l3.3,12.4c0.2,0.8,0.2,1.4-0.1,1.9c-0.3,0.5-1,0.7-2,0.7h-5.2l-6.7-9.5
		c-0.1,0-0.3-0.2-0.6-0.4c-0.3-0.2-0.7-0.4-1.2-0.7c-0.5-0.2-1.1-0.4-1.8-0.6c-0.7-0.2-1.5-0.3-2.5-0.3c-2,0-3.6,0.5-4.9,1.5
		c-1.3,1-1.9,2.5-1.9,4.4c0,1.3,0.3,2.3,0.9,3.1c0.6,0.8,1.6,1.6,2.8,2.4l6.7,4.2l6.7,4.1c3.8,2.1,6.7,4.5,8.8,7.1
		c2.1,2.6,3.2,5.6,3.2,9.2c0,2.7-0.6,5.2-1.7,7.5c-1.1,2.3-2.7,4.3-4.7,6c-2,1.7-4.4,3-7.2,4c-2.8,1-5.8,1.4-9.1,1.4
		c-2.2,0-4.4-0.2-6.5-0.5c-2.1-0.3-4.1-0.7-5.8-1.1c-2-0.5-3.9-1-5.8-1.7l-3-15.1C207.5,72,207.5,71.9,207.5,71.7z"/>
	<path d="M320.2,30.8l11.9-1h2.3c0.5,0,0.9,0.1,1.1,0.2c0.3,0.2,0.5,0.3,0.6,0.6c0.1,0.2,0.2,0.5,0.2,0.8v0.9l0.1,4.2h4.8
		c2.3-2.6,4.8-5.3,7.5-6.4c2.7-1.1,5.8-1.6,9.3-1.6c2.6,0,5,0.4,7.4,1.2c2.3,0.8,4.4,2,6.2,3.7c1.8,1.7,3.3,3.9,4.3,6.6
		c1.1,2.7,1.6,6,1.6,9.8v29.7l7.2,3.8l-0.1,4c0,0.6-0.1,1.1-0.2,1.5c-0.2,0.4-0.7,0.7-1.7,0.7H380l-5.4-0.3h-9l-5.5,0.3h-2.7
		c-0.5,0-0.9-0.1-1.1-0.2c-0.3-0.1-0.5-0.3-0.6-0.5c-0.1-0.2-0.2-0.4-0.2-0.7c0-0.3,0-0.5,0-0.8l-0.1-4l7.2-3.8V48.1
		c0-1.4-0.2-2.7-0.6-3.9c-0.4-1.2-1-2.3-1.8-3.2c-0.8-0.9-1.7-1.6-2.9-2.1c-1.1-0.5-2.4-0.8-3.8-0.8c-1.4,0-2.8,0.2-4.2,0.7
		c-1.4,0.4-2.6,1.1-3.7,2.1c-1.1,0.9-2,2.1-2.7,3.5c-0.7,1.4-1,3.2-1,5.2v30.1l7.3,3.6l-0.1,4c0,0.6-0.1,1.1-0.3,1.5
		c-0.2,0.4-0.8,0.7-1.8,0.7h-2.6l-5.6-0.3h-8.9l-5.6,0.3h-2.7c-1,0-1.6-0.2-1.7-0.7c-0.2-0.4-0.2-1-0.2-1.5l-0.1-4l7.3-3.6V42.4
		l-8.3-5.5l-0.1-3.9C318.2,31.8,318.9,31.1,320.2,30.8z"/>
	<path d="M399.3,79.5V14.1l-7.9-8.4l0.3-3.4c0.1-0.7,0.3-1.3,0.7-1.6c0.4-0.4,1.1-0.6,2.1-0.6h15.8l45.2,60.1l2.4-1.3V9.5l-10.2-3.4
		l0.3-3.8c0.1-0.7,0.3-1.3,0.6-1.6c0.3-0.4,0.9-0.6,1.8-0.6h23.8c1,0,1.7,0.2,2.1,0.6c0.4,0.4,0.6,0.9,0.7,1.6l0.3,3.8l-10.2,3.3
		v77.3c0,0.7-0.3,1.3-1,1.6c-0.6,0.4-1.5,0.6-2.4,0.6H458c-0.6,0-1.1,0-1.4-0.1c-0.3-0.1-0.6-0.3-0.8-0.5l-47.3-63v54.2l9.9,3.4
		l-0.3,3.8c-0.1,0.7-0.3,1.3-0.6,1.6c-0.3,0.4-0.9,0.6-1.9,0.6h-23.2c-1,0-1.7-0.2-2.1-0.6c-0.4-0.4-0.6-0.9-0.7-1.6l-0.3-3.8
		L399.3,79.5z"/>
	<path d="M474.7,31.3c0.3-0.4,0.8-0.6,1.8-0.7l13.8-1h3.3c1.2,0,1.9,0.3,2.1,0.8c0.2,0.5,0.4,1.1,0.4,1.7v39.1
		c0,1.4,0.2,2.7,0.7,3.9c0.5,1.2,1.1,2.2,1.9,3.1c0.8,0.9,1.8,1.6,3,2.1c1.2,0.5,2.4,0.8,3.8,0.8c1.4,0,2.8-0.2,4.1-0.6
		c1.4-0.4,2.6-1.1,3.6-2c1-0.9,1.9-2.1,2.5-3.5c0.7-1.4,1-3.1,1-5.1V42.4l-6.4-5.8l-0.1-3.8c0-0.5,0.1-1,0.4-1.4
		c0.2-0.4,0.9-0.6,1.8-0.7l13.7-1h3.3c1.2,0,1.9,0.3,2.1,0.8c0.2,0.5,0.4,1.1,0.4,1.7v47.5l8.9,3.7l-0.1,3.4c0,1.2-0.6,1.9-1.9,2.2
		L527,89.8h-2.4c-1,0-1.6-0.3-1.7-0.8c-0.1-0.5-0.2-1.1-0.2-1.7l-0.1-3h-5.8c-1.8,2-4,3.5-6.6,4.6c-2.6,1.1-5.8,1.6-9.4,1.6
		c-2.8,0-5.4-0.4-7.8-1.2c-2.4-0.8-4.5-2-6.3-3.8c-1.8-1.7-3.2-3.9-4.2-6.6c-1-2.7-1.5-5.9-1.5-9.7V42.4l-6.4-5.8l-0.1-3.8
		C474.4,32.2,474.5,31.7,474.7,31.3z"/>
	<g>
		<path d="M544.7,46.5c1.5-3.9,3.4-7.2,6-9.9c2.5-2.7,5.5-4.8,9-6.2c3.5-1.4,7.2-2.1,11.2-2.1c4.3,0,8,0.7,11.2,2.2
			c3.2,1.5,5.7,3.5,7.8,5.9c2,2.4,3.5,5.2,4.4,8.5c0.8,2.7,1.1,6.4,1.1,9.2v1.7c-0.1,1-0.4,1.8-1,2.4c-0.6,0.6-1.6,0.9-3,0.9h-27.5
			c0,0-4.6,4.3-4.6,4.5c0.3,2.1,0.7,3.3,1.4,5.2c1,2.4,2.2,4.5,3.7,6.3c1.5,1.7,3.1,3.1,5,4c1.8,0.9,3.7,1.4,5.4,1.4
			c3.1,0,5.7-0.6,7.8-1.7c2.1-1.1,3.9-2.6,5.3-4.5c0.6-0.7,1.2-1.1,1.7-1.3c0.6-0.1,1.2,0.1,2,0.7l2,1.3c0.5,0.5,0.8,1,0.8,1.6
			c0,0.6-0.1,1.1-0.4,1.5c-0.8,1.3-1.9,2.6-3.2,4.1c-1.3,1.5-2.9,2.8-4.8,4.1c-1.9,1.3-4.2,2.3-6.8,3.2c-2.6,0.9-5.6,1.3-9,1.3
			c-3.5,0-7-0.7-10.3-2.1c-3.3-1.4-6.3-3.4-8.8-6c-2.6-2.6-4.6-5.8-6.2-9.7c-1.5-3.8-2.3-8.2-2.3-13.1
			C542.5,54.9,543.2,50.4,544.7,46.5z M575.8,51.8l4-4c0-0.2,0-1.2,0-1.4c0-0.6,0-1.2,0-1.9c-0.2-1.4-0.6-2.8-1.4-4.1
			c-0.7-1.3-1.7-2.3-3-3.2c-1.2-0.8-2.8-1.3-4.6-1.3c-1.8,0-3.4,0.4-4.8,1.1c-1.3,0.7-2.5,1.7-3.5,3.1c-1,1.3-1.9,2.9-2.4,4.8
			c-0.5,1.8-0.9,4.7-0.9,6.9H575.8z"/>
	</g>
	<g>
		<path d="M189.6,1.7h-5.4c-0.2,0-0.4,0-0.7,0l-4.7,4.6c0,0.1,0,0.1,0,0.2v6.3c0,1.4,0.4,2.6,1.3,3.5c0.9,1,2.2,1.5,4,1.5h5.4
			c0.2,0,0.4,0,0.7,0l4.7-4.6c0-0.1,0-0.1,0-0.2V6.7c0-1.4-0.4-2.6-1.3-3.5C192.7,2.2,191.4,1.7,189.6,1.7z"/>
		<path d="M195.2,79.2V31.9c0-0.6-0.1-1.2-0.4-1.7c-0.2-0.5-1-0.8-2.1-0.8h-3.3l-10.4,0.7l-3.8,0.3c-0.9,0.1-1.5,0.3-1.8,0.7
			c-0.3,0.4-0.4,0.9-0.4,1.4l0.1,3.3l0,0.5l6.9,5.6l0,37.5l-7.3,3.3l0.1,4c0,0.6,0.2,1.1,0.5,1.5c0.4,0.4,1,0.7,1.9,0.7h2.2l5.5-0.3
			h8.7l5.5,0.3h2.2c1,0,1.7-0.2,2.1-0.7c0.4-0.4,0.5-1,0.5-1.5l0.1-4L195.2,79.2z"/>
	</g>
	<path d="M313.2,46.8c-1.3-3.8-3.2-7.1-5.6-9.8c-2.4-2.7-5.4-4.8-8.9-6.3c-3.5-1.5-7.4-2.3-11.8-2.3c-4.4,0-8.3,0.7-11.8,2.3
		c-3.5,1.5-6.5,3.6-9,6.3c-2.5,2.7-4.4,6-5.7,9.8c-1.3,3.8-2,8-2,12.6c0,4.2,0.6,8.2,1.7,12c1.2,3.8,2.9,7.1,5.3,10
		c2.4,2.9,5.3,5.2,8.9,6.9c3.6,1.7,7.8,2.6,12.6,2.6c4.8,0,9-0.9,12.6-2.6c3.5-1.7,6.5-4,8.8-6.9c2.3-2.9,4-6.2,5.2-10
		c1.1-3.8,1.7-7.8,1.7-12C315.1,54.8,314.5,50.6,313.2,46.8z M299,64.3c0,1.7-0.2,3.5-0.4,5.2c-0.2,1.7-0.6,3.4-1.1,5
		c-0.1,0.3-0.2,0.6-0.3,0.9l-7.2,7.1C289,82.9,288,83,287,83c-2,0-3.7-0.4-5.1-1.1c-1.4-0.7-2.5-1.7-3.4-3c-0.9-1.3-1.6-2.7-2.1-4.3
		c-0.5-1.6-0.9-3.3-1.1-5c-0.2-1.7-0.4-3.5-0.5-5.2c-0.1-1.7-0.1-3.4-0.1-4.8c0-1.5,0-3.1,0.1-4.8c0.1-1.7,0.2-3.5,0.5-5.2
		c0.3-1.7,0.6-3.4,1.1-5c0.1-0.2,0.1-0.4,0.2-0.6l7.5-7.4c0,0,0.1,0,0.1,0c0.3-0.1,0.6-0.1,0.9-0.1c0.2,0,0.3-0.1,0.5-0.1
		c0.5,0,1-0.1,1.5-0.1c2,0,3.6,0.4,5,1.1c1.4,0.7,2.5,1.7,3.4,3c0.9,1.2,1.6,2.6,2.1,4.2c0.5,1.6,0.9,3.2,1.1,5
		c0.3,1.7,0.4,3.5,0.4,5.2c0,1.7,0.1,3.4,0.1,4.8C299,61,299,62.6,299,64.3z"/>
</g>
</svg>
